<mxfile host="Electron" modified="2024-06-21T15:22:46.891Z" agent="Mozilla/5.0 (Macintosh; Intel Mac OS X 10_15_7) AppleWebKit/537.36 (KHTML, like Gecko) draw.io/24.5.3 Chrome/124.0.6367.207 Electron/30.0.6 Safari/537.36" etag="GJMQY080lkTcq7W7VJxN" version="24.5.3" type="device">
  <diagram id="fZHFOoDTKbRpOtuYLnfD" name="Page-1">
    <mxGraphModel dx="4842" dy="797" grid="1" gridSize="10" guides="1" tooltips="1" connect="1" arrows="1" fold="1" page="1" pageScale="1" pageWidth="1200" pageHeight="850" math="0" shadow="0">
      <root>
        <mxCell id="0" />
        <mxCell id="1" parent="0" />
        <mxCell id="HneQTFAt5YI_aULQyN3W-1" value="" style="rounded=0;html=1;fontFamily=IBM Plex Sans;fontSize=14;spacingBottom=-28;spacingTop=0;labelPosition=-100;verticalLabelPosition=top;align=center;verticalAlign=bottom;spacingLeft=9;spacing=0;expand=0;recursiveResize=0;spacingRight=0;container=1;collapsible=0;strokeColor=#1192E8;fillColor=default;fontStyle=0;" parent="1" vertex="1">
          <mxGeometry x="-3565" y="30" width="140" height="790" as="geometry">
            <mxRectangle width="670" as="alternateBounds" />
          </mxGeometry>
        </mxCell>
        <mxCell id="HneQTFAt5YI_aULQyN3W-2" value="" style="rounded=0;whiteSpace=wrap;html=1;strokeColor=none;fillColor=#1192E8;fontStyle=0;fontSize=14;fontFamily=IBM Plex Sans;" parent="HneQTFAt5YI_aULQyN3W-1" vertex="1">
          <mxGeometry width="7" height="37" as="geometry" />
        </mxCell>
        <mxCell id="HneQTFAt5YI_aULQyN3W-3" value="Public &lt;br style=&quot;font-size: 14px;&quot;&gt;Network" style="text;html=1;strokeColor=none;fillColor=none;align=left;verticalAlign=middle;whiteSpace=wrap;rounded=0;fontFamily=IBM Plex Sans;fontSize=14;fontStyle=0" parent="HneQTFAt5YI_aULQyN3W-1" vertex="1">
          <mxGeometry x="51" y="8" width="163" height="20" as="geometry" />
        </mxCell>
        <mxCell id="HneQTFAt5YI_aULQyN3W-4" value="" style="shape=image;aspect=fixed;image=data:image/svg+xml,PD94bWwgdmVyc2lvbj0iMS4wIiBlbmNvZGluZz0iVVRGLTgiPz4KPHN2ZyB3aWR0aD0iMjlweCIgaGVpZ2h0PSIyNnB4IiB2aWV3Qm94PSIwIDAgMjkgMjYiIHZlcnNpb249IjEuMSIgeG1sbnM9Imh0dHA6Ly93d3cudzMub3JnLzIwMDAvc3ZnIiB4bWxuczp4bGluaz0iaHR0cDovL3d3dy53My5vcmcvMTk5OS94bGluayI+CiAgICA8IS0tIEdlbmVyYXRvcjogU2tldGNoIDUzICg3MjUyMCkgLSBodHRwczovL3NrZXRjaGFwcC5jb20gLS0+CiAgICA8dGl0bGU+UHVibGljIE5ldHdvcmsgQmxhY2s8L3RpdGxlPgogICAgPGRlc2M+Q3JlYXRlZCB3aXRoIFNrZXRjaC48L2Rlc2M+CiAgICA8ZyBpZD0iUGFnZS0xIiBzdHJva2U9Im5vbmUiIHN0cm9rZS13aWR0aD0iMSIgZmlsbD0ibm9uZSIgZmlsbC1ydWxlPSJldmVub2RkIj4KICAgICAgICA8ZyBpZD0iUHVibGljLU5ldHdvcmstQmxhY2siIHRyYW5zZm9ybT0idHJhbnNsYXRlKDAuOTAxMTA2LCAtMC4xNzQyMzMpIiBmaWxsPSIjMDAwMDAwIj4KICAgICAgICAgICAgPGcgaWQ9IkludGVybmV0IiB0cmFuc2Zvcm09InRyYW5zbGF0ZSgxMS44Njc1NTksIDEwLjExMTEyMykiPgogICAgICAgICAgICAgICAgPHBhdGggZD0iTTkuOTQwMzIwMTEsMTQuMjczNTIwNyBDMTAuOTEwMDkwMywxMi40MzQ5NjI3IDExLjQ0ODI4NzQsMTAuMzk5NTE3MSAxMS41MTQyOTI3LDguMzIxNzYwMzkgTDE0Ljg5OTE4MDEsOC4zMjE3NjAzOSBDMTQuNjU3MTYwNywxMS4xNDg3MDU1IDEyLjY3NzU2NTcsMTMuNTI0ODk2NCA5Ljk0MDMyMDExLDE0LjI3MzUyMDcgTDkuOTQwMzIwMTEsMTQuMjczNTIwNyBaIE0xLjM4NzgzODAzLDguMzIxNzYwMzkgTDQuNzcyNzI1NCw4LjMyMTc2MDM5IEM0LjgzMTk2MDkyLDEwLjM5NzgyNDYgNS4zNjIyNTk5NSwxMi40MzMyNzAzIDYuMzI0MTMyMTEsMTQuMjczNTIwNyBDMy41OTU5MTI4OSwxMy41MTY5OTg0IDEuNjI3MDM2NzMsMTEuMTQzMDY0IDEuMzg3ODM4MDMsOC4zMjE3NjAzOSBMMS4zODc4MzgwMyw4LjMyMTc2MDM5IFogTTYuNDA2NDk3NywxLjU1MTk4NTY1IEM1LjQwMTc1MDMsMy40NzA2NTI2NSA0Ljg0NjYyODc3LDUuNTkyOTc3MDMgNC43ODM0NDQyMSw3Ljc1NzYxMjUgTDEuMjU0MTM0OTgsNy43NTc2MTI1IEMxLjUwNjg3MzIzLDQuODA5OTM5NzUgMy41NzA1MjYyMywyLjMzMjc2NjM0IDYuNDI0NTUwNDMsMS41NTE5ODU2NSBMNi40MDY0OTc3LDEuNTUxOTg1NjUgWiBNNS44NzI4MTM3OSw3LjE5MzQ2NDYgQzUuOTI5MjI4NTgsNC45OTYxMDg1NSA2LjU3MTc5MzAzLDIuODUzNDc0ODUgNy43MzQ1MDE4NCwwLjk4NzgzNzc2IEM3Ljk4NjExMTgsMC45NTk2MzAzNjUgOC4yMzk0MTQyMSwwLjk1OTYzMDM2NSA4LjQ5MDQ2MDAyLDAuOTg3ODM3NzYgQzkuNjY1NTgwMDksMi44NTAwODk5NiAxMC4zMTk5OTE2LDQuOTkyNzIzNjcgMTAuMzg1OTk2OSw3LjE5MzQ2NDYgTDUuODcyODEzNzksNy4xOTM0NjQ2IFogTTguMTI5NDA1MzcsMTQuNTI3Mzg3MiBDOC4wMDM2MDAzOSwxNC41MzU4NDk1IDcuODc3MjMxMjYsMTQuNTM1ODQ5NSA3Ljc1MTQyNjI4LDE0LjUyNzM4NzIgQzYuNTgyNTExODQsMTIuNjYzNDQyNiA1LjkzNDMwNTkxLDEwLjUyMDgwODkgNS44NzI4MTM3OSw4LjMyMTc2MDM5IEwxMC4zODU5OTY5LDguMzIxNzYwMzkgQzEwLjMzMDE0NjMsMTAuNTE5NjgwNiA5LjY4NzAxNzcxLDEyLjY2MjMxNDMgOC41MjQzMDg5LDE0LjUyNzM4NzIgQzguMzkyODYyNDQsMTQuNTM2NDEzNiA4LjI2MDg1MTgzLDE0LjUzNjQxMzYgOC4xMjk0MDUzNywxNC41MjczODcyIEw4LjEyOTQwNTM3LDE0LjUyNzM4NzIgWiBNMTQuODk5MTgwMSw3LjE5MzQ2NDYgTDExLjUxNDI5MjcsNy4xOTM0NjQ2IEMxMS40NDgyODc0LDUuMTE1NzA3OTEgMTAuOTEwMDkwMywzLjA4MDI2MjMgOS45NDAzMjAxMSwxLjI0MTcwNDMxIEMxMi42Nzc1NjU3LDEuOTkwMzI4NTcgMTQuNjU3MTYwNyw0LjM2NjUxOTUgMTQuODk5MTgwMSw3LjE5MzQ2NDYgTDE0Ljg5OTE4MDEsNy4xOTM0NjQ2IFogTTguMTI5NDA1MzcsMC4xMzcxMDI3MzQgQzMuNzY3NDEzODUsMC4xMzcxMDI3MzQgMC4yMzEzMzQ4NDIsMy42NzMxODE3NCAwLjIzMTMzNDg0Miw4LjAzNTE3MzI2IEMwLjIzMTMzNDg0MiwxMi4zOTcxNjQ4IDMuNzY3NDEzODUsMTUuOTMzMjQzOCA4LjEyOTQwNTM3LDE1LjkzMzI0MzggQzEyLjQ5MTM5NjksMTUuOTMzMjQzOCAxNi4wMjc0NzU5LDEyLjM5NzE2NDggMTYuMDI3NDc1OSw4LjAzNTE3MzI2IEMxNi4wMjc0NzU5LDMuNjczMTgxNzQgMTIuNDkxMzk2OSwwLjEzNzEwMjczNCA4LjEyOTQwNTM3LDAuMTM3MTAyNzM0IEw4LjEyOTQwNTM3LDAuMTM3MTAyNzM0IFoiIGlkPSJGaWxsLTEiPjwvcGF0aD4KICAgICAgICAgICAgPC9nPgogICAgICAgICAgICA8ZyBpZD0iQ2xhc3NpYy1JbmZyYXN0cnVjdHVyZS1CbGFjay1Db3B5Ij4KICAgICAgICAgICAgICAgIDxnIGlkPSJHcm91cC02IiB0cmFuc2Zvcm09InRyYW5zbGF0ZSgwLjAwMDAwMCwgMC45OTg0MDApIj4KICAgICAgICAgICAgICAgICAgICA8cGF0aCBkPSJNMTIuMDAwMDIxMiwyMi45OTgwNDIyIEw3LjczNzAyMTE4LDIyLjk5ODA0MjIgQzQuMTQ2MDIxMTgsMjIuOTk4MDQyMiAwLjg3OTAyMTE4MiwyMC41NzkwNDIyIDAuMTU5MDIxMTgyLDE3LjA2MTA0MjIgQy0wLjcxMjk3ODgxOCwxMi43OTQwNDIyIDIuMTAwMDIxMTgsOC44NTEwNDIyMiA2LjE3ODAyMTE4LDguMTIyMDQyMjIgQzcuMjE2MDIxMTgsMi42OTgwNDIyMiAxMi40NTUwMjEyLC0wLjg1Nzk1Nzc4MyAxNy44NzkwMjEyLDAuMTgwMDQyMjE3IEMyMi41OTEwMjEyLDEuMDgxMDQyMjIgMjUuOTk5MDIxMiw1LjIwMTA0MjIyIDI2LjAwMDAyMTIsOS45OTgwNDIyMiBMMjQuMDAwMDIxMiw5Ljk5ODA0MjIyIEMyNC4wMDEwMjEyLDUuMTAwMDQyMjIgMTkuNTk5MDIxMiwxLjIyOTA0MjIyIDE0LjUzNDAyMTIsMi4xMjgwNDIyMiBDMTAuOTk5MDIxMiwyLjc1NjA0MjIyIDguNDA2MDIxMTgsNS44MjYwNDIyMiA4LjAyMTAyMTE4LDkuMzk2MDQyMjIgTDcuOTU5MDIxMTgsOS45NjEwNDIyMiBMNy4zMTMwMjExOCwxMC4wMDUwNDIyIEM0Ljc0MDAyMTE4LDEwLjE3OTA0MjIgMi40NzcwMjExOCwxMi4wMjIwNDIyIDIuMDcwMDIxMTgsMTQuNTY5MDQyMiBDMS41MTIwMjExOCwxOC4wNTcwNDIyIDQuMTgyMDIxMTgsMjEuMDAzMDQyMiA3LjUwMDAyMTE4LDIwLjk5ODA0MjIgTDEyLjAwMDAyMTIsMjAuOTk4MDQyMiBMMTIuMDAwMDIxMiwyMi45OTgwNDIyIFoiIGlkPSJGaWxsLTQiPjwvcGF0aD4KICAgICAgICAgICAgICAgIDwvZz4KICAgICAgICAgICAgPC9nPgogICAgICAgIDwvZz4KICAgIDwvZz4KPC9zdmc+;fontStyle=0;fontSize=14;fontFamily=IBM Plex Sans;" parent="HneQTFAt5YI_aULQyN3W-1" vertex="1">
          <mxGeometry x="19" y="6.5" width="22" height="19.73" as="geometry" />
        </mxCell>
        <mxCell id="HneQTFAt5YI_aULQyN3W-6" value="" style="rounded=0;whiteSpace=wrap;html=1;fontFamily=IBM Plex Sans;fontSize=14;spacingBottom=-28;spacingTop=0;labelPosition=-100;verticalLabelPosition=top;align=center;verticalAlign=bottom;spacingLeft=9;spacing=0;expand=0;recursiveResize=0;spacingRight=0;container=1;collapsible=0;strokeColor=#1192E8;fillColor=default;fontStyle=0" parent="1" vertex="1">
          <mxGeometry x="-3405" y="30" width="970" height="790" as="geometry">
            <mxRectangle width="670" as="alternateBounds" />
          </mxGeometry>
        </mxCell>
        <mxCell id="HneQTFAt5YI_aULQyN3W-7" value="" style="rounded=0;whiteSpace=wrap;html=1;strokeColor=none;fillColor=#1192E8;fontStyle=0;fontSize=14;fontFamily=IBM Plex Sans;" parent="HneQTFAt5YI_aULQyN3W-6" vertex="1">
          <mxGeometry width="7" height="37" as="geometry" />
        </mxCell>
        <mxCell id="HneQTFAt5YI_aULQyN3W-8" value="IBM Cloud" style="text;html=1;strokeColor=none;fillColor=none;align=left;verticalAlign=middle;whiteSpace=wrap;rounded=0;fontFamily=IBM Plex Sans;fontSize=14;fontStyle=0" parent="HneQTFAt5YI_aULQyN3W-6" vertex="1">
          <mxGeometry x="51" y="8" width="163" height="20" as="geometry" />
        </mxCell>
        <mxCell id="HneQTFAt5YI_aULQyN3W-9" value="" style="shape=image;aspect=fixed;image=data:image/svg+xml,PD94bWwgdmVyc2lvbj0iMS4wIiBlbmNvZGluZz0iVVRGLTgiPz4KPHN2ZyB3aWR0aD0iMzNweCIgaGVpZ2h0PSIzMXB4IiB2aWV3Qm94PSIwIDAgMzMgMzEiIHZlcnNpb249IjEuMSIgeG1sbnM9Imh0dHA6Ly93d3cudzMub3JnLzIwMDAvc3ZnIiB4bWxuczp4bGluaz0iaHR0cDovL3d3dy53My5vcmcvMTk5OS94bGluayI+CiAgICA8IS0tIEdlbmVyYXRvcjogU2tldGNoIDUzICg3MjUyMCkgLSBodHRwczovL3NrZXRjaGFwcC5jb20gLS0+CiAgICA8dGl0bGU+SUJNIENsb3VkIEJsYWNrPC90aXRsZT4KICAgIDxkZXNjPkNyZWF0ZWQgd2l0aCBTa2V0Y2guPC9kZXNjPgogICAgPGcgaWQ9IlBhZ2UtMSIgc3Ryb2tlPSJub25lIiBzdHJva2Utd2lkdGg9IjEiIGZpbGw9Im5vbmUiIGZpbGwtcnVsZT0iZXZlbm9kZCI+CiAgICAgICAgPGcgaWQ9IklCTS1DbG91ZC1CbGFjayIgdHJhbnNmb3JtPSJ0cmFuc2xhdGUoMC43ODQ3MjIsIDAuNTAwMTI1KSIgZmlsbD0iIzAwMDAwMCI+CiAgICAgICAgICAgIDxwYXRoIGQ9Ik0yNy4xMDIxLDI3LjAxMDYgQzI1Ljg3MDEsMjcuODc5NiAyNC4zNjExLDI4LjI2NzYgMjIuODUzMSwyOC4yNjc2IEw3LjAwNDEsMjguMjY3NiBDNC4xMTIxLDI4LjI3NDYgMS43NjIxLDI1LjkzNDYgMS43NTUxLDIzLjA0MjYgQzEuNzQ5MSwyMC40MTA2IDMuNjk3MSwxOC4xODM2IDYuMzA1MSwxNy44Mzg2IEM2LjQxMTEsMTkuMTYxNiA2Ljc4NzEsMjAuNDQ5NiA3LjQwOTEsMjEuNjIxNiBDNy41OTUxLDIxLjk5MTYgOC4wNDYxLDIyLjE0MDYgOC40MTYxLDIxLjk1NDYgQzguNzg2MSwyMS43Njc2IDguOTM1MSwyMS4zMTc2IDguNzQ4MSwyMC45NDc2IEw4LjczMDEsMjAuOTEyNiBDNy4xMzIxLDE3LjkzNTYgNy40MjkxLDE0LjIxNzYgOS42NzIxLDExLjY4OTYgQzEzLjQ4NjEsNy4zOTI2IDE5Ljc4NzEsOC4wNTI2IDIyLjc1NzEsMTIuMjgxNiBDMjAuMzM0MSwxMi4zNDc2IDE4LjA0NzEsMTMuNDE1NiAxNi40NDExLDE1LjIzMDYgQzE2LjE2MTEsMTUuNTM1NiAxNi4xODExLDE2LjAxMDYgMTYuNDg1MSwxNi4yOTA2IEMxNi43ODkxLDE2LjU3MTYgMTcuMjY0MSwxNi41NTI2IDE3LjU0NTEsMTYuMjQ3NiBMMTcuNTY2MSwxNi4yMjI2IEMxOS41OTUxLDEzLjkyMzYgMjIuODg0MSwxMy4wNTI2IDI1LjcwMzEsMTQuMjYzNiBDMzEuMTY1MSwxNi42MDk2IDMxLjgxMDEsMjMuNjkyNiAyNy4xMDIxLDI3LjAxMDYgTTI0LjU4NTEsMTIuOTE3NiBDMjIuMDU0MSw4LjE3NTYgMTYuMTU5MSw2LjM4MjYgMTEuNDE2MSw4LjkxMzYgQzguNDY1MSwxMC40ODg2IDYuNTI5MSwxMy40Njg2IDYuMjkwMSwxNi44MDY2IEMyLjU4NDEsMTcuMjA0NiAtMC4wOTc5LDIwLjUzMjYgMC4zMDExLDI0LjIzOTYgQzAuNjY5MSwyNy42NjU2IDMuNTU5MSwzMC4yNjM2IDcuMDA0MSwzMC4yNjc2IEwyMy4wMDQxLDMwLjI2NzYgQzI3LjgzNTEsMzAuMjcwNiAzMS43NTMxLDI2LjM1NzYgMzEuNzU2MSwyMS41MjY2IEMzMS43NTkxLDE3LjMwMTYgMjguNzQxMSwxMy42Nzg2IDI0LjU4NTEsMTIuOTE3NiIgaWQ9IkZpbGwtMSI+PC9wYXRoPgogICAgICAgICAgICA8ZyBpZD0iR3JvdXAtNSIgdHJhbnNmb3JtPSJ0cmFuc2xhdGUoMjcuMDAwMDAwLCA4LjI2NzcwMCkiPgogICAgICAgICAgICAgICAgPHBhdGggZD0iTTQuOTAyOCwwLjkxOTcgQzQuNjkzOCwwLjU1NjcgNC4yMjk4LDAuNDMyNyAzLjg2NjgsMC42NDE3IEMzLjg2NjgsMC42NDE3IDMuODY2OCwwLjY0MTcgMy44NjY4LDAuNjQyNyBMMC44NDY4LDIuMzg1NyBDMC40Nzg4LDIuNTg2NyAwLjM0MzgsMy4wNDc3IDAuNTQ0OCwzLjQxNTcgQzAuNzQ1OCwzLjc4MzcgMS4yMDY4LDMuOTE4NyAxLjU3NDgsMy43MTc3IEMxLjU4NDgsMy43MTE3IDEuNTk0OCwzLjcwNTcgMS42MDQ4LDMuNjk5NyBMNC42MjQ4LDEuOTU2NyBDNC45ODc4LDEuNzQ2NyA1LjExMTgsMS4yODI3IDQuOTAyOCwwLjkxOTciIGlkPSJGaWxsLTMiPjwvcGF0aD4KICAgICAgICAgICAgPC9nPgogICAgICAgICAgICA8cGF0aCBkPSJNMjIuNjgxMiw2LjgwMjYgQzIzLjA0MzIsNy4wMTI2IDIzLjUwNzIsNi44ODg2IDIzLjcxNzIsNi41MjU2IEwyMy43MTcyLDYuNTI1NiBMMjUuNDYxMiwzLjUwNTYgQzI1LjY2ODIsMy4xNDA2IDI1LjU0MDIsMi42Nzc2IDI1LjE3NjIsMi40NzA2IEMyNC44MTUyLDIuMjY2NiAyNC4zNTcyLDIuMzg4NiAyNC4xNDcyLDIuNzQ2NiBMMjIuNDAzMiw1Ljc2NjYgQzIyLjE5NDIsNi4xMjk2IDIyLjMxODIsNi41OTM2IDIyLjY4MTIsNi44MDI2IiBpZD0iRmlsbC02Ij48L3BhdGg+CiAgICAgICAgICAgIDxwYXRoIGQ9Ik0xNi4wMDQ0LDUuMDE0MSBDMTYuNDIzNCw1LjAxNDEgMTYuNzYzNCw0LjY3NDEgMTcuMzM1NCw0LjI1NTEgTDE3LjMzNTQsMC43NjcxIEMxNi43Njg0LDAuMzQ4MSAxNi40MzI0LDAuMDA1MSAxNi4wMTM0LDAuMDAwMSBDMTUuNTk0NCwtMC4wMDQ5IDE1LjI1MTQsMC4zMzExIDE1LjMzNTQsMC43NTAxIEwxNS4zMzU0LDAuNzY3MSBMMTUuMzM1NCw0LjI1NTEgQzE1LjI0NjQsNC42NzQxIDE1LjU4NTQsNS4wMTQxIDE2LjAwNDQsNS4wMTQxIiBpZD0iRmlsbC04Ij48L3BhdGg+CiAgICAgICAgICAgIDxwYXRoIGQ9Ik04LjI5Miw2LjUyNDggQzguNTA0LDYuODg1OCA4Ljk2OSw3LjAwNjggOS4zMzEsNi43OTQ4IEM5LjY4OCw2LjU4NDggOS44MTEsNi4xMjY4IDkuNjA2LDUuNzY1OCBMNy44NjIsMi43NDU4IEM3LjY1NSwyLjM4MTggNy4xOTIsMi4yNTM4IDYuODI4LDIuNDYwOCBDNi40NjMsMi42Njc4IDYuMzM1LDMuMTMwOCA2LjU0MiwzLjQ5NDggQzYuNTQ0LDMuNDk4OCA2LjU0NiwzLjUwMTggNi41NDgsMy41MDQ4IEw4LjI5Miw2LjUyNDggWiIgaWQ9IkZpbGwtMTAiPjwvcGF0aD4KICAgICAgICAgICAgPGcgaWQ9Ikdyb3VwLTE0IiB0cmFuc2Zvcm09InRyYW5zbGF0ZSgwLjAwMDAwMCwgOC4yNjc3MDApIj4KICAgICAgICAgICAgICAgIDxwYXRoIGQ9Ik00LjE2MzEsMi4zODYgTDEuMTQzMSwwLjY0MiBDMC43ODIxLDAuNDMgMC4zMTcxLDAuNTUxIDAuMTA0MSwwLjkxMiBDLTAuMTA3OSwxLjI3MyAwLjAxMzEsMS43MzkgMC4zNzQxLDEuOTUgQzAuMzc4MSwxLjk1MiAwLjM4MTEsMS45NTQgMC4zODQxLDEuOTU2IEwzLjQwNTEsMy43IEMzLjc2NjEsMy45MTIgNC4yMzExLDMuNzkxIDQuNDQzMSwzLjQzIEM0LjY1NTEsMy4wNjkgNC41MzUxLDIuNjA0IDQuMTczMSwyLjM5MiBDNC4xNzAxLDIuMzkgNC4xNjYxLDIuMzg4IDQuMTYzMSwyLjM4NiBaIiBpZD0iRmlsbC0xMiI+PC9wYXRoPgogICAgICAgICAgICA8L2c+CiAgICAgICAgPC9nPgogICAgPC9nPgo8L3N2Zz4=;fontStyle=0;fontSize=14;fontFamily=IBM Plex Sans;" parent="HneQTFAt5YI_aULQyN3W-6" vertex="1">
          <mxGeometry x="20" y="7" width="21" height="19.73" as="geometry" />
        </mxCell>
        <mxCell id="lomF_qURMvtSIjknfktM-73" value="Region" parent="0" />
        <mxCell id="HneQTFAt5YI_aULQyN3W-20" value="" style="rounded=0;whiteSpace=wrap;html=1;fontFamily=IBM Plex Sans;fontSize=14;spacingBottom=-28;spacingTop=0;labelPosition=-100;verticalLabelPosition=top;align=center;verticalAlign=bottom;spacingLeft=9;spacing=0;expand=0;recursiveResize=0;spacingRight=0;container=1;collapsible=0;strokeColor=#878d96;fillColor=#f2f4f8;fontStyle=0" parent="lomF_qURMvtSIjknfktM-73" vertex="1">
          <mxGeometry x="-3295" y="70" width="840" height="730" as="geometry">
            <mxRectangle width="670" as="alternateBounds" />
          </mxGeometry>
        </mxCell>
        <mxCell id="HneQTFAt5YI_aULQyN3W-21" value="" style="rounded=0;whiteSpace=wrap;html=1;strokeColor=none;fillColor=#878d96;fontStyle=0;fontSize=14;fontFamily=IBM Plex Sans;" parent="HneQTFAt5YI_aULQyN3W-20" vertex="1">
          <mxGeometry width="7" height="37" as="geometry" />
        </mxCell>
        <mxCell id="HneQTFAt5YI_aULQyN3W-22" value="Region" style="text;html=1;strokeColor=none;fillColor=none;align=left;verticalAlign=middle;whiteSpace=wrap;rounded=0;fontFamily=IBM Plex Sans;fontSize=14;fontStyle=0" parent="HneQTFAt5YI_aULQyN3W-20" vertex="1">
          <mxGeometry x="51" y="8" width="168" height="20" as="geometry" />
        </mxCell>
        <mxCell id="HneQTFAt5YI_aULQyN3W-23" style="edgeStyle=orthogonalEdgeStyle;rounded=0;orthogonalLoop=1;jettySize=auto;html=1;exitX=0;exitY=0.5;exitDx=0;exitDy=0;entryX=1.009;entryY=0.22;entryDx=0;entryDy=0;entryPerimeter=0;fontFamily=IBM Plex Sans;fontSource=fonts%2FIBMPlexSans-Regular.woff;fontSize=14;startArrow=oval;startFill=1;strokeColor=#198038;" parent="HneQTFAt5YI_aULQyN3W-20" edge="1">
          <mxGeometry relative="1" as="geometry" />
        </mxCell>
        <mxCell id="HneQTFAt5YI_aULQyN3W-24" value="" style="shape=image;aspect=fixed;image=data:image/svg+xml,PD94bWwgdmVyc2lvbj0iMS4wIiBlbmNvZGluZz0iVVRGLTgiPz4KPHN2ZyB3aWR0aD0iMjNweCIgaGVpZ2h0PSIyOHB4IiB2aWV3Qm94PSIwIDAgMjMgMjgiIHZlcnNpb249IjEuMSIgeG1sbnM9Imh0dHA6Ly93d3cudzMub3JnLzIwMDAvc3ZnIiB4bWxuczp4bGluaz0iaHR0cDovL3d3dy53My5vcmcvMTk5OS94bGluayI+CiAgICA8IS0tIEdlbmVyYXRvcjogU2tldGNoIDUzICg3MjUyMCkgLSBodHRwczovL3NrZXRjaGFwcC5jb20gLS0+CiAgICA8dGl0bGU+UmVnaW9uIEJsYWNrPC90aXRsZT4KICAgIDxkZXNjPkNyZWF0ZWQgd2l0aCBTa2V0Y2guPC9kZXNjPgogICAgPGcgaWQ9IlBhZ2UtMSIgc3Ryb2tlPSJub25lIiBzdHJva2Utd2lkdGg9IjEiIGZpbGw9Im5vbmUiIGZpbGwtcnVsZT0iZXZlbm9kZCI+CiAgICAgICAgPGcgaWQ9IlJlZ2lvbi1CbGFjayIgdHJhbnNmb3JtPSJ0cmFuc2xhdGUoMC4xMjUwMDAsIDAuMDAwMDAwKSIgZmlsbD0iIzAwMDAwMCI+CiAgICAgICAgICAgIDxwYXRoIGQ9Ik0xMS4wMDAyLDggQzkuMzQzMiw4IDguMDAwMiw5LjM0MyA4LjAwMDIsMTEgQzguMDAwMiwxMi42NTcgOS4zNDMyLDE0IDExLjAwMDIsMTQgQzEyLjY1NzIsMTQgMTQuMDAwMiwxMi42NTcgMTQuMDAwMiwxMSBDMTMuOTk4Miw5LjM0NCAxMi42NTYyLDguMDAyIDExLjAwMDIsOCBNMTEuMDAwMiwxNiBDOC4yMzgyLDE2IDYuMDAwMiwxMy43NjEgNi4wMDAyLDExIEM2LjAwMDIsOC4yMzkgOC4yMzgyLDYgMTEuMDAwMiw2IEMxMy43NjEyLDYgMTYuMDAwMiw4LjIzOSAxNi4wMDAyLDExIEMxNS45OTcyLDEzLjc2IDEzLjc2MDIsMTUuOTk3IDExLjAwMDIsMTYiIGlkPSJGaWxsLTEiPjwvcGF0aD4KICAgICAgICAgICAgPGcgaWQ9Ikdyb3VwLTUiPgogICAgICAgICAgICAgICAgPHBhdGggZD0iTTMuODEyNywxNi4zOTUgQzMuODEzNywxNi4zOTUgNC4wNDU3LDE2LjcwMyA0LjA5ODcsMTYuNzcgTDEwLjk5OTcsMjQuOTA4IEwxNy45MTA3LDE2Ljc1OCBDMTcuOTU0NywxNi43MDMgMTguMTg4NywxNi4zOTMgMTguMTg4NywxNi4zOTIgQzE5LjM2NjcsMTQuODQxIDIwLjAwMTcsMTIuOTQ3IDE5Ljk5OTcsMTEgQzE5Ljk5OTcsNi4wMjkgMTUuOTcwNywyIDEwLjk5OTcsMiBDNi4wMjk3LDIgMi4wMDA3LDYuMDI5IDIuMDAwNywxMSBDMS45OTc3LDEyLjk0OCAyLjYzNDcsMTQuODQzIDMuODEyNywxNi4zOTUgTDMuODEyNywxNi4zOTUgWiBNMTAuOTk5NywyOCBMMi41NjQ3LDE4LjA1MSBDMi41MTY3LDE3Ljk5NCAyLjIxNjcsMTcuNiAyLjIxNjcsMTcuNiBDMC43NzQ3LDE1LjcwMiAtMC4wMDMzLDEzLjM4MyAtMC4wMDAzLDExIEMtMC4wMDAzLDQuOTI1IDQuOTI0NywwIDEwLjk5OTcsMCBDMTcuMDc1NywwIDIxLjk5OTcsNC45MjUgMjEuOTk5NywxMSBDMjIuMDAyNywxMy4zODIgMjEuMjI1NywxNS43IDE5Ljc4NTcsMTcuNTk3IEwxOS43ODM3LDE3LjYgQzE5Ljc4MzcsMTcuNiAxOS40ODM3LDE3Ljk5NCAxOS40Mzg3LDE4LjA0NyBMMTAuOTk5NywyOCBaIiBpZD0iRmlsbC0zIj48L3BhdGg+CiAgICAgICAgICAgIDwvZz4KICAgICAgICA8L2c+CiAgICA8L2c+Cjwvc3ZnPg==;fontStyle=0;fontSize=14;fontFamily=IBM Plex Sans;" parent="HneQTFAt5YI_aULQyN3W-20" vertex="1">
          <mxGeometry x="22.66" y="6" width="17" height="20.69" as="geometry" />
        </mxCell>
        <mxCell id="lomF_qURMvtSIjknfktM-74" value="VPC Layer" parent="0" />
        <mxCell id="HneQTFAt5YI_aULQyN3W-16" value="" style="rounded=0;whiteSpace=wrap;html=1;fontFamily=IBM Plex Sans;fontSize=14;spacingBottom=-28;spacingTop=0;labelPosition=-100;verticalLabelPosition=top;align=center;verticalAlign=bottom;spacingLeft=9;spacing=0;expand=0;recursiveResize=0;spacingRight=0;container=1;collapsible=0;strokeColor=#1192E8;fillColor=default;fontStyle=0" parent="lomF_qURMvtSIjknfktM-74" vertex="1">
          <mxGeometry x="-3275" y="110" width="800" height="675" as="geometry">
            <mxRectangle width="670" as="alternateBounds" />
          </mxGeometry>
        </mxCell>
        <mxCell id="HneQTFAt5YI_aULQyN3W-17" value="" style="rounded=0;whiteSpace=wrap;html=1;strokeColor=none;fillColor=#1192E8;fontStyle=0;fontSize=14;fontFamily=IBM Plex Sans;" parent="HneQTFAt5YI_aULQyN3W-16" vertex="1">
          <mxGeometry width="7" height="37" as="geometry" />
        </mxCell>
        <mxCell id="HneQTFAt5YI_aULQyN3W-18" value="IBM VPC" style="text;html=1;strokeColor=none;fillColor=none;align=left;verticalAlign=middle;whiteSpace=wrap;rounded=0;fontFamily=IBM Plex Sans;fontSize=14;fontStyle=0" parent="HneQTFAt5YI_aULQyN3W-16" vertex="1">
          <mxGeometry x="51" y="8" width="163" height="20" as="geometry" />
        </mxCell>
        <mxCell id="HneQTFAt5YI_aULQyN3W-19" value="" style="shape=image;aspect=fixed;image=data:image/svg+xml,PD94bWwgdmVyc2lvbj0iMS4wIiBlbmNvZGluZz0iVVRGLTgiPz4KPHN2ZyB3aWR0aD0iMjlweCIgaGVpZ2h0PSIyOHB4IiB2aWV3Qm94PSIwIDAgMjkgMjgiIHZlcnNpb249IjEuMSIgeG1sbnM9Imh0dHA6Ly93d3cudzMub3JnLzIwMDAvc3ZnIiB4bWxuczp4bGluaz0iaHR0cDovL3d3dy53My5vcmcvMTk5OS94bGluayI+CiAgICA8IS0tIEdlbmVyYXRvcjogU2tldGNoIDUzICg3MjUyMCkgLSBodHRwczovL3NrZXRjaGFwcC5jb20gLS0+CiAgICA8dGl0bGU+SUJNIFZQQyBCbGFjazwvdGl0bGU+CiAgICA8ZGVzYz5DcmVhdGVkIHdpdGggU2tldGNoLjwvZGVzYz4KICAgIDxnIGlkPSJQYWdlLTEiIHN0cm9rZT0ibm9uZSIgc3Ryb2tlLXdpZHRoPSIxIiBmaWxsPSJub25lIiBmaWxsLXJ1bGU9ImV2ZW5vZGQiPgogICAgICAgIDxnIGlkPSJJQk0tVlBDLUJsYWNrIiB0cmFuc2Zvcm09InRyYW5zbGF0ZSgwLjc1MDAwMCwgLTEuMDAwMDAwKSIgZmlsbD0iIzAwMDAwMCI+CiAgICAgICAgICAgIDxwYXRoIGQ9Ik0wLjAwMDksMS4wMDAyIEwwLjAwMDksOS4wMDAyIEw2LjU4NjksOS4wMDAyIEwyMC4wMDA5LDIyLjQxNDIgTDIwLjAwMDksMjkuMDAwMiBMMjguMDAwOSwyOS4wMDAyIEwyOC4wMDA5LDIxLjAwMDIgTDIxLjQxNTksMjEuMDAwMiBMOC4wMDA5LDcuNTg1MiBMOC4wMDA5LDEuMDAwMiBMMC4wMDA5LDEuMDAwMiBaIE0yLjAwMDksNy4wMDAyIEw2LjAwMDksNy4wMDAyIEw2LjAwMDksMy4wMDAyIEwyLjAwMDksMy4wMDAyIEwyLjAwMDksNy4wMDAyIFogTTIyLjAwMDksMjcuMDAxMiBMMjYuMDAxOSwyNy4wMDEyIEwyNi4wMDE5LDIzLjAwMDIgTDIyLjAwMDksMjMuMDAwMiBMMjIuMDAwOSwyNy4wMDEyIFoiIGlkPSJGaWxsLTEiPjwvcGF0aD4KICAgICAgICAgICAgPGcgaWQ9Ikdyb3VwLTgiIHRyYW5zZm9ybT0idHJhbnNsYXRlKDAuMDAwMDAwLCAwLjAwMTkwMCkiPgogICAgICAgICAgICAgICAgPGcgaWQ9Ikdyb3VwLTQiIHRyYW5zZm9ybT0idHJhbnNsYXRlKDExLjAwMDAwMCwgMC4wMDAwMDApIj4KICAgICAgICAgICAgICAgICAgICA8cGF0aCBkPSJNMTIuNjQ2Nyw2LjgxNzkgQzExLjU0MjcsNi44MTc5IDEwLjY0NjcsNS45MjI5IDEwLjY0NjcsNC44MTc5IEMxMC42NDY3LDMuNzEzOSAxMS41NDI3LDIuODE3OSAxMi42NDY3LDIuODE3OSBDMTMuNzUwNywyLjgxNzkgMTQuNjQ2NywzLjcxMzkgMTQuNjQ2Nyw0LjgxNzkgQzE0LjY0NTcsNS45MjE5IDEzLjc1MDcsNi44MTY5IDEyLjY0NjcsNi44MTc5IE0xNi43MzM3LDMuNTE4OSBDMTYuMzU2NywyLjQ5ODkgMTUuNTMxNywxLjY2NzkgMTQuNTE1NywxLjI4MDkgQzEyLjEyNzcsMC4zNzA5IDkuNzE3NywxLjc1NTkgOS4xNDI3LDMuOTk3OSBMMC4wMDA3LDMuOTk3OSBMMC4wMDA3LDUuOTk3OSBMOS4xNDI3LDUuOTk3OSBDOS41MDc3LDcuMzk3OSAxMC42MDE3LDguNDkwOSAxMi4wMDA3LDguODU1OSBMMTIuMDAwNywxNy45OTc5IEwxNC4wMDA3LDE3Ljk5NzkgTDE0LjAwMDcsOC44NTU5IEMxNi4yMjk3LDguMjgxOSAxNy42MTE3LDUuODk2OSAxNi43MzM3LDMuNTE4OSIgaWQ9IkZpbGwtMiI+PC9wYXRoPgogICAgICAgICAgICAgICAgPC9nPgogICAgICAgICAgICAgICAgPGcgaWQ9Ikdyb3VwLTciIHRyYW5zZm9ybT0idHJhbnNsYXRlKDAuMDAwMDAwLCAxMS4wMDAwMDApIj4KICAgICAgICAgICAgICAgICAgICA8cGF0aCBkPSJNMy42NDY3LDE1LjgxNzkgQzIuNTQyNywxNS44MTc5IDEuNjQ2NywxNC45MjI5IDEuNjQ2NywxMy44MTc5IEMxLjY0NjcsMTIuNzEzOSAyLjU0MjcsMTEuODE3OSAzLjY0NjcsMTEuODE3OSBDNC43NTA3LDExLjgxNzkgNS42NDY3LDEyLjcxMzkgNS42NDY3LDEzLjgxNzkgQzUuNjQ1NywxNC45MjE5IDQuNzUwNywxNS44MTY5IDMuNjQ2NywxNS44MTc5IEwzLjY0NjcsMTUuODE3OSBaIE0xNy4wMDA3LDEyLjk5NzkgTDcuODU4NywxMi45OTc5IEM3LjQ5MzcsMTEuNTk3OSA2LjQwMDcsMTAuNTA0OSA1LjAwMDcsMTAuMTM5OSBMNS4wMDA3LDAuOTk3OSBMMy4wMDA3LDAuOTk3OSBMMy4wMDA3LDEwLjEzOTkgQzAuNDg3NywxMC43ODQ5IC0wLjg1MTMsMTMuNjgzOSAwLjU5NDcsMTYuMTE5OSBDMS4xNTA3LDE3LjA1NTkgMi4xMTE3LDE3LjcyODkgMy4xODI3LDE3LjkyNjkgQzUuNDAyNywxOC4zMzc5IDcuMzUzNywxNi45Njk5IDcuODU4NywxNC45OTc5IEwxNy4wMDA3LDE0Ljk5NzkgTDE3LjAwMDcsMTIuOTk3OSBaIiBpZD0iRmlsbC01Ij48L3BhdGg+CiAgICAgICAgICAgICAgICA8L2c+CiAgICAgICAgICAgIDwvZz4KICAgICAgICA8L2c+CiAgICA8L2c+Cjwvc3ZnPg==;fontStyle=0;fontSize=14;fontFamily=IBM Plex Sans;" parent="HneQTFAt5YI_aULQyN3W-16" vertex="1">
          <mxGeometry x="20" y="6.849999999999909" width="20" height="19.31" as="geometry" />
        </mxCell>
        <mxCell id="HneQTFAt5YI_aULQyN3W-26" value="" style="rounded=0;whiteSpace=wrap;html=1;fontFamily=IBM Plex Sans;fontSource=fonts%2FIBMPlexSans-Regular.woff;fontSize=14;fillColor=none;spacingBottom=-28;spacingTop=0;labelPosition=-100;verticalLabelPosition=top;align=center;verticalAlign=bottom;spacingLeft=9;spacing=0;expand=0;recursiveResize=0;spacingRight=0;container=0;collapsible=0;strokeColor=#878D96;strokeWidth=2;dashed=1;dashPattern=1 2;" parent="HneQTFAt5YI_aULQyN3W-16" vertex="1">
          <mxGeometry x="275" y="50" width="505" height="190" as="geometry">
            <mxRectangle width="670" as="alternateBounds" />
          </mxGeometry>
        </mxCell>
        <mxCell id="HneQTFAt5YI_aULQyN3W-27" value="" style="rounded=0;whiteSpace=wrap;html=1;strokeColor=none;fillColor=#878d96;fontStyle=0;fontSize=14;fontFamily=IBM Plex Sans;" parent="HneQTFAt5YI_aULQyN3W-26" vertex="1">
          <mxGeometry width="7" height="37" as="geometry" />
        </mxCell>
        <mxCell id="HneQTFAt5YI_aULQyN3W-28" value="Zone 1" style="text;html=1;strokeColor=none;fillColor=none;align=left;verticalAlign=middle;whiteSpace=wrap;rounded=0;fontFamily=IBM Plex Sans;fontSize=14;fontStyle=0" parent="HneQTFAt5YI_aULQyN3W-26" vertex="1">
          <mxGeometry x="51" y="8" width="168" height="20" as="geometry" />
        </mxCell>
        <mxCell id="HneQTFAt5YI_aULQyN3W-29" value="" style="shape=image;aspect=fixed;image=data:image/svg+xml,PD94bWwgdmVyc2lvbj0iMS4wIiBlbmNvZGluZz0iVVRGLTgiPz4KPHN2ZyB3aWR0aD0iMjlweCIgaGVpZ2h0PSIyNnB4IiB2aWV3Qm94PSIwIDAgMjkgMjYiIHZlcnNpb249IjEuMSIgeG1sbnM9Imh0dHA6Ly93d3cudzMub3JnLzIwMDAvc3ZnIiB4bWxuczp4bGluaz0iaHR0cDovL3d3dy53My5vcmcvMTk5OS94bGluayI+CiAgICA8IS0tIEdlbmVyYXRvcjogU2tldGNoIDUzICg3MjUyMCkgLSBodHRwczovL3NrZXRjaGFwcC5jb20gLS0+CiAgICA8dGl0bGU+Wm9uZSBCbGFjazwvdGl0bGU+CiAgICA8ZGVzYz5DcmVhdGVkIHdpdGggU2tldGNoLjwvZGVzYz4KICAgIDxnIGlkPSJQYWdlLTEiIHN0cm9rZT0ibm9uZSIgc3Ryb2tlLXdpZHRoPSIxIiBmaWxsPSJub25lIiBmaWxsLXJ1bGU9ImV2ZW5vZGQiPgogICAgICAgIDxnIGlkPSJab25lLUJsYWNrIiB0cmFuc2Zvcm09InRyYW5zbGF0ZSgwLjEyNTAwMCwgMC4wMDAwMDApIiBmaWxsPSIjMDAwMDAwIj4KICAgICAgICAgICAgPGcgaWQ9Ikdyb3VwLTMiPgogICAgICAgICAgICAgICAgPHBhdGggZD0iTTI2LjAwMDEsMjQuMDAwMSBMMjEuMDAwMSwyNC4wMDAxIEwyMS4wMDAxLDIwLjAwMDEgTDIzLjAwMDEsMjAuMDAwMSBMMjMuMDAwMSwxOC4wMDAxIEwyMS4wMDAxLDE4LjAwMDEgTDIxLjAwMDEsMTYuMDAwMSBMMjMuMDAwMSwxNi4wMDAxIEwyMy4wMDAxLDE0LjAwMDEgTDIxLjAwMDEsMTQuMDAwMSBMMjEuMDAwMSwxMi4wMDAxIEwyMy4wMDAxLDEyLjAwMDEgTDIzLjAwMDEsMTAuMDAwMSBMMjEuMDAwMSwxMC4wMDAxIEwyMS4wMDAxLDguMDAwMSBMMjYuMDAwMSw4LjAwMDEgTDI2LjAwMDEsMjQuMDAwMSBaIE05LjAwMDEsMjQuMDAwMSBMMTkuMDAwMSwyNC4wMDAxIEwxOS4wMDAxLDIuMDAwMSBMOS4wMDAxLDIuMDAwMSBMOS4wMDAxLDI0LjAwMDEgWiBNMi4wMDAxLDI0LjAwMDEgTDIuMDAwMSw4LjAwMDEgTDcuMDAwMSw4LjAwMDEgTDcuMDAwMSwxMC4wMDAxIEw1LjAwMDEsMTAuMDAwMSBMNS4wMDAxLDEyLjAwMDEgTDcuMDAwMSwxMi4wMDAxIEw3LjAwMDEsMTQuMDAwMSBMNS4wMDAxLDE0LjAwMDEgTDUuMDAwMSwxNi4wMDAxIEw3LjAwMDEsMTYuMDAwMSBMNy4wMDAxLDE4LjAwMDEgTDUuMDAwMSwxOC4wMDAxIEw1LjAwMDEsMjAuMDAwMSBMNy4wMDAxLDIwLjAwMDEgTDcuMDAwMSwyNC4wMDAxIEwyLjAwMDEsMjQuMDAwMSBaIE0yNi4wMDAxLDYuMDAwMSBMMjEuMDAwMSw2LjAwMDEgTDIxLjAwMDEsMi4wMDAxIEMyMC45OTkxLDAuODk2MSAyMC4xMDQxLDAuMDAxMSAxOS4wMDAxLDAuMDAwMSBMOS4wMDAxLDAuMDAwMSBDNy44OTYxLDAuMDAxMSA3LjAwMTEsMC44OTYxIDcuMDAwMSwyLjAwMDEgTDcuMDAwMSw2LjAwMDEgTDIuMDAwMSw2LjAwMDEgQzAuODk2MSw2LjAwMTEgMC4wMDExLDYuODk2MSAwLjAwMDEsOC4wMDAxIEwwLjAwMDEsMjQuMDAwMSBDMC4wMDExLDI1LjEwNDEgMC44OTYxLDI1Ljk5OTEgMi4wMDAxLDI2LjAwMDEgTDI2LjAwMDEsMjYuMDAwMSBDMjcuMTA0MSwyNS45OTkxIDI3Ljk5OTEsMjUuMTA0MSAyOC4wMDAxLDI0LjAwMDEgTDI4LjAwMDEsOC4wMDAxIEMyNy45OTkxLDYuODk2MSAyNy4xMDQxLDYuMDAxMSAyNi4wMDAxLDYuMDAwMSBMMjYuMDAwMSw2LjAwMDEgWiIgaWQ9IkZpbGwtMSI+PC9wYXRoPgogICAgICAgICAgICA8L2c+CiAgICAgICAgICAgIDxwb2x5Z29uIGlkPSJGaWxsLTQiIHBvaW50cz0iMTIgNiAxNiA2IDE2IDQgMTIgNCI+PC9wb2x5Z29uPgogICAgICAgICAgICA8cG9seWdvbiBpZD0iRmlsbC02IiBwb2ludHM9IjEyIDEwIDE2IDEwIDE2IDggMTIgOCI+PC9wb2x5Z29uPgogICAgICAgICAgICA8cG9seWdvbiBpZD0iRmlsbC03IiBwb2ludHM9IjEyIDE0IDE2IDE0IDE2IDEyIDEyIDEyIj48L3BvbHlnb24+CiAgICAgICAgPC9nPgogICAgPC9nPgo8L3N2Zz4=;fontStyle=0;fontSize=14;fontFamily=IBM Plex Sans;" parent="HneQTFAt5YI_aULQyN3W-26" vertex="1">
          <mxGeometry x="20" y="8.07" width="20" height="17.93" as="geometry" />
        </mxCell>
        <mxCell id="HneQTFAt5YI_aULQyN3W-30" style="edgeStyle=orthogonalEdgeStyle;rounded=0;orthogonalLoop=1;jettySize=auto;html=1;exitX=0;exitY=0.5;exitDx=0;exitDy=0;entryX=1.009;entryY=0.22;entryDx=0;entryDy=0;entryPerimeter=0;fontFamily=IBM Plex Sans;fontSource=fonts%2FIBMPlexSans-Regular.woff;fontSize=14;startArrow=oval;startFill=1;strokeColor=#198038;" parent="HneQTFAt5YI_aULQyN3W-26" edge="1">
          <mxGeometry relative="1" as="geometry" />
        </mxCell>
        <mxCell id="HneQTFAt5YI_aULQyN3W-50" value="" style="rounded=0;whiteSpace=wrap;html=1;fontFamily=IBM Plex Sans;fontSize=14;spacingBottom=-28;spacingTop=0;labelPosition=-100;verticalLabelPosition=top;align=center;verticalAlign=bottom;spacingLeft=9;spacing=0;expand=0;recursiveResize=0;spacingRight=0;container=1;collapsible=0;strokeColor=#1192E8;fillColor=#E5F6FF;fontStyle=0" parent="HneQTFAt5YI_aULQyN3W-26" vertex="1">
          <mxGeometry x="60" y="40" width="420" height="142" as="geometry">
            <mxRectangle width="670" as="alternateBounds" />
          </mxGeometry>
        </mxCell>
        <mxCell id="HneQTFAt5YI_aULQyN3W-51" value="" style="rounded=0;whiteSpace=wrap;html=1;strokeColor=none;fillColor=#1192E8;fontStyle=0;fontSize=14;fontFamily=IBM Plex Sans;" parent="HneQTFAt5YI_aULQyN3W-50" vertex="1">
          <mxGeometry width="7" height="37" as="geometry" />
        </mxCell>
        <mxCell id="HneQTFAt5YI_aULQyN3W-52" value="Subnet 1" style="text;html=1;strokeColor=none;fillColor=none;align=left;verticalAlign=middle;whiteSpace=wrap;rounded=0;fontFamily=IBM Plex Sans;fontSize=14;fontStyle=0" parent="HneQTFAt5YI_aULQyN3W-50" vertex="1">
          <mxGeometry x="51" y="8" width="163" height="20" as="geometry" />
        </mxCell>
        <mxCell id="HneQTFAt5YI_aULQyN3W-53" value="" style="shape=image;aspect=fixed;image=data:image/svg+xml,PD94bWwgdmVyc2lvbj0iMS4wIiBlbmNvZGluZz0iVVRGLTgiPz4KPHN2ZyB3aWR0aD0iMjlweCIgaGVpZ2h0PSIyOXB4IiB2aWV3Qm94PSIwIDAgMjkgMjkiIHZlcnNpb249IjEuMSIgeG1sbnM9Imh0dHA6Ly93d3cudzMub3JnLzIwMDAvc3ZnIiB4bWxuczp4bGluaz0iaHR0cDovL3d3dy53My5vcmcvMTk5OS94bGluayI+CiAgICA8IS0tIEdlbmVyYXRvcjogU2tldGNoIDUzICg3MjUyMCkgLSBodHRwczovL3NrZXRjaGFwcC5jb20gLS0+CiAgICA8dGl0bGU+SUJNIFN1Ym5ldCA6IEFDTCBCbGFjazwvdGl0bGU+CiAgICA8ZGVzYz5DcmVhdGVkIHdpdGggU2tldGNoLjwvZGVzYz4KICAgIDxnIGlkPSJQYWdlLTEiIHN0cm9rZT0ibm9uZSIgc3Ryb2tlLXdpZHRoPSIxIiBmaWxsPSJub25lIiBmaWxsLXJ1bGU9ImV2ZW5vZGQiPgogICAgICAgIDxnIGlkPSJJQk0tU3VibmV0LTotQUNMLUJsYWNrIiB0cmFuc2Zvcm09InRyYW5zbGF0ZSgwLjc1MDAwMCwgMC4wNzQ5NTkpIiBmaWxsPSIjMDAwMDAwIj4KICAgICAgICAgICAgPHBhdGggZD0iTTI0LjAxNjEsMjYuMjIyMSBDMjIuOTEyMSwyNi4yMjIxIDIyLjAxNjEsMjUuMzI2MSAyMi4wMTYxLDI0LjIyMjEgQzIyLjAxNjEsMjMuMTE4MSAyMi45MTIxLDIyLjIyMjEgMjQuMDE2MSwyMi4yMjIxIEMyNS4xMjAxLDIyLjIyMjEgMjYuMDE2MSwyMy4xMTgxIDI2LjAxNjEsMjQuMjIyMSBDMjYuMDEzMSwyNS4zMjUxIDI1LjExOTEsMjYuMjE5MSAyNC4wMTYxLDI2LjIyMjEgTTQuMDE2MSwyNi4yMjIxIEMyLjkxMjEsMjYuMjIyMSAyLjAxNjEsMjUuMzI2MSAyLjAxNjEsMjQuMjIyMSBDMi4wMTYxLDIzLjExODEgMi45MTIxLDIyLjIyMjEgNC4wMTYxLDIyLjIyMjEgQzUuMTIwMSwyMi4yMjIxIDYuMDE2MSwyMy4xMTgxIDYuMDE2MSwyNC4yMjIxIEM2LjAxMzEsMjUuMzI1MSA1LjExOTEsMjYuMjE5MSA0LjAxNjEsMjYuMjIyMSBNNC4wMTYxLDYuMjIyMSBDMi45MTIxLDYuMjIyMSAyLjAxNjEsNS4zMjYxIDIuMDE2MSw0LjIyMjEgQzIuMDE2MSwzLjExODEgMi45MTIxLDIuMjIyMSA0LjAxNjEsMi4yMjIxIEM1LjEyMDEsMi4yMjIxIDYuMDE2MSwzLjExODEgNi4wMTYxLDQuMjIyMSBDNi4wMTMxLDUuMzI1MSA1LjExOTEsNi4yMTkxIDQuMDE2MSw2LjIyMjEgTTI0LjAxNjEsMi4yMjIxIEMyNS4xMjAxLDIuMjIyMSAyNi4wMTYxLDMuMTE4MSAyNi4wMTYxLDQuMjIyMSBDMjYuMDE2MSw1LjMyNjEgMjUuMTIwMSw2LjIyMjEgMjQuMDE2MSw2LjIyMjEgQzIyLjkxMjEsNi4yMjIxIDIyLjAxNjEsNS4zMjYxIDIyLjAxNjEsNC4yMjIxIEMyMi4wMTkxLDMuMTE4MSAyMi45MTMxLDIuMjI1MSAyNC4wMTYxLDIuMjIyMSBNMjQuMDE2MSwyMC4wMDAxIEMyMy4zMDUxLDE5Ljk5ODEgMjIuNjA5MSwyMC4yMDcxIDIyLjAxNjEsMjAuNjAwMSBMMTcuNDMwMSwxNi4wMDAxIEwxNi4wMTYxLDE3LjQxNDEgTDIwLjYxNjEsMjIuMDAwMSBDMjAuNDQwMSwyMi4zMTQxIDIwLjMwNjEsMjIuNjUxMSAyMC4yMTYxLDIzLjAwMDEgTDcuODc0MSwyMy4wMDAxIEM3Ljc3NDEsMjIuNjQ1MSA3LjYyMDEsMjIuMzA3MSA3LjQxNjEsMjIuMDAwMSBMMjIuMDE2MSw3LjQwMDEgQzIzLjgwNzEsOC41ODYxIDI2LjUzNzEsOC4wOTQxIDI3Ljc5NDEsNS4xOTgxIEMyNy45MTAxLDQuOTMyMSAyNy45OTIxLDQuNjQ0MSAyOC4wMTYxLDQuMzU1MSBDMjguMjIxMSwxLjk5NDEgMjYuMzcwMSwwLjAwOTEgMjQuMDQ4MSwwLjAwMDEgQzIyLjIxODEsLTAuMDA2OSAyMC42MTcxLDEuMjI4MSAyMC4xNTkxLDMuMDAwMSBMNy45MTYxLDMuMDAwMSBDNy40MzMxLDEuMjQwMSA1Ljg0MTEsMC4wMTUxIDQuMDE2MSwwLjAwMDEgQzEuNjc0MSwwLjAwMDEgLTAuMTk2OSwyLjAxMjEgMC4wMzYxLDQuNDAyMSBDMC4wNjcxLDQuNzIzMSAwLjE2MzEsNS4wNDExIDAuMjk5MSw1LjMzNTEgQzEuNTgyMSw4LjEwOTEgNC4yNTQxLDguNTY3MSA2LjAxNjEsNy40MDAxIEwxMC42MDIxLDEyLjAwMDEgTDEyLjAxNjEsMTAuNTg2MSBMNy40MTYxLDYuMDAwMSBDNy41OTIxLDUuNjg1MSA3LjcyNjEsNS4zNDkxIDcuODE2MSw1LjAwMDEgTDIwLjE1ODEsNS4wMDAxIEMyMC4yNTgxLDUuMzU1MSAyMC40MTIxLDUuNjkyMSAyMC42MTYxLDYuMDAwMSBMNi4wMTYxLDIwLjYwMDEgQzQuMjI0MSwxOS40MTMxIDEuNDk0MSwxOS45MDcxIDAuMjM3MSwyMi44MDUxIEMwLjEyMjEsMjMuMDcwMSAwLjA0MDEsMjMuMzU3MSAwLjAxNjEsMjMuNjQ1MSBDLTAuMTg3OSwyNi4wMDYxIDEuNjYzMSwyNy45OTExIDMuOTg0MSwyOC4wMDAxIEM1LjgxNDEsMjguMDA3MSA3LjQxNTEsMjYuNzcyMSA3Ljg3MzEsMjUuMDAwMSBMMjAuMTE2MSwyNS4wMDAxIEMyMC43MjkxLDI3LjQxMzEgMjMuNDEyMSwyOC43NTUxIDI1Ljc4NzEsMjcuNjEwMSBDMjcuMTAzMSwyNi45NzUxIDI3Ljk4NzEsMjUuNjA0MSAyOC4wMTgxLDI0LjE0MzEgQzI4LjA2ODEsMjEuNzk1MSAyNi4yMTIxLDIwLjAwNjEgMjQuMDE2MSwyMC4wMDAxIiBpZD0iRmlsbC0xIj48L3BhdGg+CiAgICAgICAgPC9nPgogICAgPC9nPgo8L3N2Zz4=;fontStyle=0;fontSize=14;fontFamily=IBM Plex Sans;" parent="HneQTFAt5YI_aULQyN3W-50" vertex="1">
          <mxGeometry x="20" y="7" width="20" height="20" as="geometry" />
        </mxCell>
        <mxCell id="HneQTFAt5YI_aULQyN3W-41" value="ALB" style="shape=image;aspect=fixed;image=data:image/svg+xml,PHN2ZyBpZD0iTGF5ZXJfMSIgZGF0YS1uYW1lPSJMYXllciAxIiB4bWxucz0iaHR0cDovL3d3dy53My5vcmcvMjAwMC9zdmciIHZpZXdCb3g9IjAgMCA0OSA0OSI+PGRlZnM+PHN0eWxlPi5jbHMtMXtmaWxsOiMxMTkyZTg7fS5jbHMtMntmaWxsOiNmZmY7fS5jbHMtM3tmaWxsOm5vbmU7fTwvc3R5bGU+PC9kZWZzPjxyZWN0IGNsYXNzPSJjbHMtMSIgeD0iMC41IiB5PSIwLjUiIHdpZHRoPSI0OCIgaGVpZ2h0PSI0OCIgcng9IjgiLz48cGF0aCBjbGFzcz0iY2xzLTIiIGQ9Ik0zMC4xMiwyNC41aC01VjIzLjMxSDIzLjg4VjI0LjVoLTVhMS4yMywxLjIzLDAsMCwwLTEuMjYsMS4xOXYzLjU2aDEuMjZWMjUuNjloNXYzLjU2aDEuMjRWMjUuNjloNXYzLjU2aDEuMjZWMjUuNjlBMS4yMywxLjIzLDAsMCwwLDMwLjEyLDI0LjVaIi8+PHJlY3QgY2xhc3M9ImNscy0yIiB4PSIxNyIgeT0iMzAuNDMiIHdpZHRoPSIyLjUiIGhlaWdodD0iMi4zNyIvPjxyZWN0IGNsYXNzPSJjbHMtMiIgeD0iMjMuMjUiIHk9IjMwLjQzIiB3aWR0aD0iMi41IiBoZWlnaHQ9IjIuMzciLz48cmVjdCBjbGFzcz0iY2xzLTIiIHg9IjI5LjUiIHk9IjMwLjQzIiB3aWR0aD0iMi41IiBoZWlnaHQ9IjIuMzciLz48cmVjdCBjbGFzcz0iY2xzLTMiIHg9IjE0LjUiIHk9IjE1IiB3aWR0aD0iMjAiIGhlaWdodD0iMTguOTkiLz48cGF0aCBjbGFzcz0iY2xzLTIiIGQ9Ik0yMC4xMiwxNi4xOXY1Ljk0aDguNzZWMTYuMTlabTEuMjYsMS4xOWgxLjI0djMuNTZIMjEuMzhabTYuMjQsMy41NkgyMy44OFYxNy4zOGgzLjc0WiIvPjwvc3ZnPg==;fontFamily=IBM Plex Sans;fontSize=14;labelPosition=center;verticalLabelPosition=bottom;align=center;verticalAlign=top;spacingTop=-7;fontStyle=0" parent="HneQTFAt5YI_aULQyN3W-50" vertex="1">
          <mxGeometry x="100" y="47" width="48" height="48" as="geometry" />
        </mxCell>
        <mxCell id="HneQTFAt5YI_aULQyN3W-42" value="Worker&#xa;Node 1" style="shape=image;aspect=fixed;image=data:image/svg+xml,PHN2ZyBpZD0iTGF5ZXJfMSIgZGF0YS1uYW1lPSJMYXllciAxIiB4bWxucz0iaHR0cDovL3d3dy53My5vcmcvMjAwMC9zdmciIHZpZXdCb3g9IjAgMCA0OSA0OSI+PGRlZnM+PHN0eWxlPi5jbHMtMXtmaWxsOiMxOTgwMzg7fS5jbHMtMntmaWxsOiNmZmY7fS5jbHMtM3tmaWxsOm5vbmU7fTwvc3R5bGU+PC9kZWZzPjxyZWN0IGNsYXNzPSJjbHMtMSIgeD0iMC41IiB5PSIwLjUiIHdpZHRoPSI0OCIgaGVpZ2h0PSI0OCIvPjxjaXJjbGUgY2xhc3M9ImNscy0yIiBjeD0iMTguODgiIGN5PSIyOC44OCIgcj0iMC42MyIvPjxyZWN0IGNsYXNzPSJjbHMtMiIgeD0iMTUuNzUiIHk9IjE4LjI1IiB3aWR0aD0iMi41IiBoZWlnaHQ9IjEuMjUiLz48cmVjdCBjbGFzcz0iY2xzLTIiIHg9IjE5LjUiIHk9IjE4LjI1IiB3aWR0aD0iMi41IiBoZWlnaHQ9IjEuMjUiLz48cmVjdCBjbGFzcz0iY2xzLTIiIHg9IjIzLjI1IiB5PSIxOC4yNSIgd2lkdGg9IjIuNSIgaGVpZ2h0PSIxLjI1Ii8+PHJlY3QgY2xhc3M9ImNscy0yIiB4PSIyNyIgeT0iMTguMjUiIHdpZHRoPSIyLjUiIGhlaWdodD0iMS4yNSIvPjxyZWN0IGNsYXNzPSJjbHMtMiIgeD0iMzAuNzUiIHk9IjE4LjI1IiB3aWR0aD0iMi41IiBoZWlnaHQ9IjEuMjUiLz48cGF0aCBjbGFzcz0iY2xzLTIiIGQ9Ik0zMiwzMkgxN2ExLjI1LDEuMjUsMCwwLDEtMS4yNS0xLjI1VjI3QTEuMjUsMS4yNSwwLDAsMSwxNywyNS43NUgzMkExLjI1LDEuMjUsMCwwLDEsMzMuMjUsMjd2My43NUExLjI1LDEuMjUsMCwwLDEsMzIsMzJaTTE3LDI3djMuNzVIMzJWMjdaIi8+PHJlY3QgY2xhc3M9ImNscy0zIiB4PSIxNC41IiB5PSIxNC41IiB3aWR0aD0iMjAiIGhlaWdodD0iMjAiLz48cmVjdCBjbGFzcz0iY2xzLTIiIHg9IjE1Ljc1IiB5PSIyMiIgd2lkdGg9IjE3LjUiIGhlaWdodD0iMS4yNSIvPjwvc3ZnPg==;fontFamily=IBM Plex Sans;fontSize=14;spacingTop=-7;labelPosition=center;verticalLabelPosition=bottom;align=center;verticalAlign=top;fontStyle=0" parent="HneQTFAt5YI_aULQyN3W-50" vertex="1">
          <mxGeometry x="204" y="47" width="48" height="48" as="geometry" />
        </mxCell>
        <mxCell id="HneQTFAt5YI_aULQyN3W-43" value="Worker&#xa;Node 2" style="shape=image;aspect=fixed;image=data:image/svg+xml,PHN2ZyBpZD0iTGF5ZXJfMSIgZGF0YS1uYW1lPSJMYXllciAxIiB4bWxucz0iaHR0cDovL3d3dy53My5vcmcvMjAwMC9zdmciIHZpZXdCb3g9IjAgMCA0OSA0OSI+PGRlZnM+PHN0eWxlPi5jbHMtMXtmaWxsOiMxOTgwMzg7fS5jbHMtMntmaWxsOiNmZmY7fS5jbHMtM3tmaWxsOm5vbmU7fTwvc3R5bGU+PC9kZWZzPjxyZWN0IGNsYXNzPSJjbHMtMSIgeD0iMC41IiB5PSIwLjUiIHdpZHRoPSI0OCIgaGVpZ2h0PSI0OCIvPjxjaXJjbGUgY2xhc3M9ImNscy0yIiBjeD0iMTguODgiIGN5PSIyOC44OCIgcj0iMC42MyIvPjxyZWN0IGNsYXNzPSJjbHMtMiIgeD0iMTUuNzUiIHk9IjE4LjI1IiB3aWR0aD0iMi41IiBoZWlnaHQ9IjEuMjUiLz48cmVjdCBjbGFzcz0iY2xzLTIiIHg9IjE5LjUiIHk9IjE4LjI1IiB3aWR0aD0iMi41IiBoZWlnaHQ9IjEuMjUiLz48cmVjdCBjbGFzcz0iY2xzLTIiIHg9IjIzLjI1IiB5PSIxOC4yNSIgd2lkdGg9IjIuNSIgaGVpZ2h0PSIxLjI1Ii8+PHJlY3QgY2xhc3M9ImNscy0yIiB4PSIyNyIgeT0iMTguMjUiIHdpZHRoPSIyLjUiIGhlaWdodD0iMS4yNSIvPjxyZWN0IGNsYXNzPSJjbHMtMiIgeD0iMzAuNzUiIHk9IjE4LjI1IiB3aWR0aD0iMi41IiBoZWlnaHQ9IjEuMjUiLz48cGF0aCBjbGFzcz0iY2xzLTIiIGQ9Ik0zMiwzMkgxN2ExLjI1LDEuMjUsMCwwLDEtMS4yNS0xLjI1VjI3QTEuMjUsMS4yNSwwLDAsMSwxNywyNS43NUgzMkExLjI1LDEuMjUsMCwwLDEsMzMuMjUsMjd2My43NUExLjI1LDEuMjUsMCwwLDEsMzIsMzJaTTE3LDI3djMuNzVIMzJWMjdaIi8+PHJlY3QgY2xhc3M9ImNscy0zIiB4PSIxNC41IiB5PSIxNC41IiB3aWR0aD0iMjAiIGhlaWdodD0iMjAiLz48cmVjdCBjbGFzcz0iY2xzLTIiIHg9IjE1Ljc1IiB5PSIyMiIgd2lkdGg9IjE3LjUiIGhlaWdodD0iMS4yNSIvPjwvc3ZnPg==;fontFamily=IBM Plex Sans;fontSize=14;spacingTop=-7;labelPosition=center;verticalLabelPosition=bottom;align=center;verticalAlign=top;fontStyle=0" parent="HneQTFAt5YI_aULQyN3W-50" vertex="1">
          <mxGeometry x="294" y="47" width="48" height="48" as="geometry" />
        </mxCell>
        <mxCell id="P5f-9x0DIOcbd5ffzTkL-10" style="edgeStyle=orthogonalEdgeStyle;rounded=0;orthogonalLoop=1;jettySize=auto;html=1;exitX=1;exitY=0.5;exitDx=0;exitDy=0;entryX=0.5;entryY=0;entryDx=0;entryDy=0;endArrow=block;endFill=1;strokeWidth=2;startArrow=oval;startFill=1;fontStyle=0;fontSize=14;fontFamily=IBM Plex Sans;" parent="HneQTFAt5YI_aULQyN3W-50" source="HneQTFAt5YI_aULQyN3W-41" target="HneQTFAt5YI_aULQyN3W-42" edge="1">
          <mxGeometry relative="1" as="geometry">
            <Array as="points">
              <mxPoint x="189" y="72" />
              <mxPoint x="189" y="28" />
              <mxPoint x="228" y="28" />
            </Array>
            <mxPoint x="151.99999999999955" y="72" as="sourcePoint" />
            <mxPoint x="228" y="48" as="targetPoint" />
          </mxGeometry>
        </mxCell>
        <mxCell id="P5f-9x0DIOcbd5ffzTkL-11" style="edgeStyle=orthogonalEdgeStyle;rounded=0;orthogonalLoop=1;jettySize=auto;html=1;exitX=1;exitY=0.5;exitDx=0;exitDy=0;endArrow=block;endFill=1;strokeWidth=2;startArrow=oval;startFill=1;entryX=0.5;entryY=0;entryDx=0;entryDy=0;fontStyle=0;fontSize=14;fontFamily=IBM Plex Sans;" parent="HneQTFAt5YI_aULQyN3W-50" source="HneQTFAt5YI_aULQyN3W-41" target="HneQTFAt5YI_aULQyN3W-43" edge="1">
          <mxGeometry relative="1" as="geometry">
            <Array as="points">
              <mxPoint x="189" y="72" />
              <mxPoint x="189" y="28" />
              <mxPoint x="318" y="28" />
            </Array>
            <mxPoint x="151.99999999999955" y="72" as="sourcePoint" />
            <mxPoint x="318" y="37" as="targetPoint" />
          </mxGeometry>
        </mxCell>
        <mxCell id="HneQTFAt5YI_aULQyN3W-93" value="Zones" parent="0" />
        <mxCell id="HneQTFAt5YI_aULQyN3W-65" value="" style="rounded=0;whiteSpace=wrap;html=1;fontFamily=IBM Plex Sans;fontSource=fonts%2FIBMPlexSans-Regular.woff;fontSize=14;fillColor=none;spacingBottom=-28;spacingTop=0;labelPosition=-100;verticalLabelPosition=top;align=center;verticalAlign=bottom;spacingLeft=9;spacing=0;expand=0;recursiveResize=0;spacingRight=0;container=0;collapsible=0;strokeColor=#878D96;strokeWidth=2;dashed=1;dashPattern=1 2;" parent="HneQTFAt5YI_aULQyN3W-93" vertex="1">
          <mxGeometry x="-2995" y="580" width="500" height="190" as="geometry">
            <mxRectangle width="670" as="alternateBounds" />
          </mxGeometry>
        </mxCell>
        <mxCell id="HneQTFAt5YI_aULQyN3W-66" value="" style="rounded=0;whiteSpace=wrap;html=1;strokeColor=none;fillColor=#878d96;fontStyle=0;fontSize=14;fontFamily=IBM Plex Sans;" parent="HneQTFAt5YI_aULQyN3W-65" vertex="1">
          <mxGeometry width="7" height="37" as="geometry" />
        </mxCell>
        <mxCell id="HneQTFAt5YI_aULQyN3W-67" value="Zone 3" style="text;html=1;strokeColor=none;fillColor=none;align=left;verticalAlign=middle;whiteSpace=wrap;rounded=0;fontFamily=IBM Plex Sans;fontSize=14;fontStyle=0" parent="HneQTFAt5YI_aULQyN3W-65" vertex="1">
          <mxGeometry x="51" y="8" width="168" height="20" as="geometry" />
        </mxCell>
        <mxCell id="HneQTFAt5YI_aULQyN3W-68" value="" style="shape=image;aspect=fixed;image=data:image/svg+xml,PD94bWwgdmVyc2lvbj0iMS4wIiBlbmNvZGluZz0iVVRGLTgiPz4KPHN2ZyB3aWR0aD0iMjlweCIgaGVpZ2h0PSIyNnB4IiB2aWV3Qm94PSIwIDAgMjkgMjYiIHZlcnNpb249IjEuMSIgeG1sbnM9Imh0dHA6Ly93d3cudzMub3JnLzIwMDAvc3ZnIiB4bWxuczp4bGluaz0iaHR0cDovL3d3dy53My5vcmcvMTk5OS94bGluayI+CiAgICA8IS0tIEdlbmVyYXRvcjogU2tldGNoIDUzICg3MjUyMCkgLSBodHRwczovL3NrZXRjaGFwcC5jb20gLS0+CiAgICA8dGl0bGU+Wm9uZSBCbGFjazwvdGl0bGU+CiAgICA8ZGVzYz5DcmVhdGVkIHdpdGggU2tldGNoLjwvZGVzYz4KICAgIDxnIGlkPSJQYWdlLTEiIHN0cm9rZT0ibm9uZSIgc3Ryb2tlLXdpZHRoPSIxIiBmaWxsPSJub25lIiBmaWxsLXJ1bGU9ImV2ZW5vZGQiPgogICAgICAgIDxnIGlkPSJab25lLUJsYWNrIiB0cmFuc2Zvcm09InRyYW5zbGF0ZSgwLjEyNTAwMCwgMC4wMDAwMDApIiBmaWxsPSIjMDAwMDAwIj4KICAgICAgICAgICAgPGcgaWQ9Ikdyb3VwLTMiPgogICAgICAgICAgICAgICAgPHBhdGggZD0iTTI2LjAwMDEsMjQuMDAwMSBMMjEuMDAwMSwyNC4wMDAxIEwyMS4wMDAxLDIwLjAwMDEgTDIzLjAwMDEsMjAuMDAwMSBMMjMuMDAwMSwxOC4wMDAxIEwyMS4wMDAxLDE4LjAwMDEgTDIxLjAwMDEsMTYuMDAwMSBMMjMuMDAwMSwxNi4wMDAxIEwyMy4wMDAxLDE0LjAwMDEgTDIxLjAwMDEsMTQuMDAwMSBMMjEuMDAwMSwxMi4wMDAxIEwyMy4wMDAxLDEyLjAwMDEgTDIzLjAwMDEsMTAuMDAwMSBMMjEuMDAwMSwxMC4wMDAxIEwyMS4wMDAxLDguMDAwMSBMMjYuMDAwMSw4LjAwMDEgTDI2LjAwMDEsMjQuMDAwMSBaIE05LjAwMDEsMjQuMDAwMSBMMTkuMDAwMSwyNC4wMDAxIEwxOS4wMDAxLDIuMDAwMSBMOS4wMDAxLDIuMDAwMSBMOS4wMDAxLDI0LjAwMDEgWiBNMi4wMDAxLDI0LjAwMDEgTDIuMDAwMSw4LjAwMDEgTDcuMDAwMSw4LjAwMDEgTDcuMDAwMSwxMC4wMDAxIEw1LjAwMDEsMTAuMDAwMSBMNS4wMDAxLDEyLjAwMDEgTDcuMDAwMSwxMi4wMDAxIEw3LjAwMDEsMTQuMDAwMSBMNS4wMDAxLDE0LjAwMDEgTDUuMDAwMSwxNi4wMDAxIEw3LjAwMDEsMTYuMDAwMSBMNy4wMDAxLDE4LjAwMDEgTDUuMDAwMSwxOC4wMDAxIEw1LjAwMDEsMjAuMDAwMSBMNy4wMDAxLDIwLjAwMDEgTDcuMDAwMSwyNC4wMDAxIEwyLjAwMDEsMjQuMDAwMSBaIE0yNi4wMDAxLDYuMDAwMSBMMjEuMDAwMSw2LjAwMDEgTDIxLjAwMDEsMi4wMDAxIEMyMC45OTkxLDAuODk2MSAyMC4xMDQxLDAuMDAxMSAxOS4wMDAxLDAuMDAwMSBMOS4wMDAxLDAuMDAwMSBDNy44OTYxLDAuMDAxMSA3LjAwMTEsMC44OTYxIDcuMDAwMSwyLjAwMDEgTDcuMDAwMSw2LjAwMDEgTDIuMDAwMSw2LjAwMDEgQzAuODk2MSw2LjAwMTEgMC4wMDExLDYuODk2MSAwLjAwMDEsOC4wMDAxIEwwLjAwMDEsMjQuMDAwMSBDMC4wMDExLDI1LjEwNDEgMC44OTYxLDI1Ljk5OTEgMi4wMDAxLDI2LjAwMDEgTDI2LjAwMDEsMjYuMDAwMSBDMjcuMTA0MSwyNS45OTkxIDI3Ljk5OTEsMjUuMTA0MSAyOC4wMDAxLDI0LjAwMDEgTDI4LjAwMDEsOC4wMDAxIEMyNy45OTkxLDYuODk2MSAyNy4xMDQxLDYuMDAxMSAyNi4wMDAxLDYuMDAwMSBMMjYuMDAwMSw2LjAwMDEgWiIgaWQ9IkZpbGwtMSI+PC9wYXRoPgogICAgICAgICAgICA8L2c+CiAgICAgICAgICAgIDxwb2x5Z29uIGlkPSJGaWxsLTQiIHBvaW50cz0iMTIgNiAxNiA2IDE2IDQgMTIgNCI+PC9wb2x5Z29uPgogICAgICAgICAgICA8cG9seWdvbiBpZD0iRmlsbC02IiBwb2ludHM9IjEyIDEwIDE2IDEwIDE2IDggMTIgOCI+PC9wb2x5Z29uPgogICAgICAgICAgICA8cG9seWdvbiBpZD0iRmlsbC03IiBwb2ludHM9IjEyIDE0IDE2IDE0IDE2IDEyIDEyIDEyIj48L3BvbHlnb24+CiAgICAgICAgPC9nPgogICAgPC9nPgo8L3N2Zz4=;fontStyle=0;fontSize=14;fontFamily=IBM Plex Sans;" parent="HneQTFAt5YI_aULQyN3W-65" vertex="1">
          <mxGeometry x="20" y="8.07" width="20" height="17.93" as="geometry" />
        </mxCell>
        <mxCell id="HneQTFAt5YI_aULQyN3W-69" style="edgeStyle=orthogonalEdgeStyle;rounded=0;orthogonalLoop=1;jettySize=auto;html=1;exitX=0;exitY=0.5;exitDx=0;exitDy=0;entryX=1.009;entryY=0.22;entryDx=0;entryDy=0;entryPerimeter=0;fontFamily=IBM Plex Sans;fontSource=fonts%2FIBMPlexSans-Regular.woff;fontSize=14;startArrow=oval;startFill=1;strokeColor=#198038;" parent="HneQTFAt5YI_aULQyN3W-65" edge="1">
          <mxGeometry relative="1" as="geometry" />
        </mxCell>
        <mxCell id="HneQTFAt5YI_aULQyN3W-70" value="" style="rounded=0;whiteSpace=wrap;html=1;fontFamily=IBM Plex Sans;fontSize=14;spacingBottom=-28;spacingTop=0;labelPosition=-100;verticalLabelPosition=top;align=center;verticalAlign=bottom;spacingLeft=9;spacing=0;expand=0;recursiveResize=0;spacingRight=0;container=1;collapsible=0;strokeColor=#1192E8;fillColor=#E5F6FF;fontStyle=0" parent="HneQTFAt5YI_aULQyN3W-65" vertex="1">
          <mxGeometry x="60" y="28" width="420" height="142" as="geometry">
            <mxRectangle width="670" as="alternateBounds" />
          </mxGeometry>
        </mxCell>
        <mxCell id="HneQTFAt5YI_aULQyN3W-71" value="" style="rounded=0;whiteSpace=wrap;html=1;strokeColor=none;fillColor=#1192E8;fontStyle=0;fontSize=14;fontFamily=IBM Plex Sans;" parent="HneQTFAt5YI_aULQyN3W-70" vertex="1">
          <mxGeometry width="7" height="37" as="geometry" />
        </mxCell>
        <mxCell id="HneQTFAt5YI_aULQyN3W-72" value="Subnet 3" style="text;html=1;strokeColor=none;fillColor=none;align=left;verticalAlign=middle;whiteSpace=wrap;rounded=0;fontFamily=IBM Plex Sans;fontSize=14;fontStyle=0" parent="HneQTFAt5YI_aULQyN3W-70" vertex="1">
          <mxGeometry x="51" y="8" width="163" height="20" as="geometry" />
        </mxCell>
        <mxCell id="HneQTFAt5YI_aULQyN3W-73" value="" style="shape=image;aspect=fixed;image=data:image/svg+xml,PD94bWwgdmVyc2lvbj0iMS4wIiBlbmNvZGluZz0iVVRGLTgiPz4KPHN2ZyB3aWR0aD0iMjlweCIgaGVpZ2h0PSIyOXB4IiB2aWV3Qm94PSIwIDAgMjkgMjkiIHZlcnNpb249IjEuMSIgeG1sbnM9Imh0dHA6Ly93d3cudzMub3JnLzIwMDAvc3ZnIiB4bWxuczp4bGluaz0iaHR0cDovL3d3dy53My5vcmcvMTk5OS94bGluayI+CiAgICA8IS0tIEdlbmVyYXRvcjogU2tldGNoIDUzICg3MjUyMCkgLSBodHRwczovL3NrZXRjaGFwcC5jb20gLS0+CiAgICA8dGl0bGU+SUJNIFN1Ym5ldCA6IEFDTCBCbGFjazwvdGl0bGU+CiAgICA8ZGVzYz5DcmVhdGVkIHdpdGggU2tldGNoLjwvZGVzYz4KICAgIDxnIGlkPSJQYWdlLTEiIHN0cm9rZT0ibm9uZSIgc3Ryb2tlLXdpZHRoPSIxIiBmaWxsPSJub25lIiBmaWxsLXJ1bGU9ImV2ZW5vZGQiPgogICAgICAgIDxnIGlkPSJJQk0tU3VibmV0LTotQUNMLUJsYWNrIiB0cmFuc2Zvcm09InRyYW5zbGF0ZSgwLjc1MDAwMCwgMC4wNzQ5NTkpIiBmaWxsPSIjMDAwMDAwIj4KICAgICAgICAgICAgPHBhdGggZD0iTTI0LjAxNjEsMjYuMjIyMSBDMjIuOTEyMSwyNi4yMjIxIDIyLjAxNjEsMjUuMzI2MSAyMi4wMTYxLDI0LjIyMjEgQzIyLjAxNjEsMjMuMTE4MSAyMi45MTIxLDIyLjIyMjEgMjQuMDE2MSwyMi4yMjIxIEMyNS4xMjAxLDIyLjIyMjEgMjYuMDE2MSwyMy4xMTgxIDI2LjAxNjEsMjQuMjIyMSBDMjYuMDEzMSwyNS4zMjUxIDI1LjExOTEsMjYuMjE5MSAyNC4wMTYxLDI2LjIyMjEgTTQuMDE2MSwyNi4yMjIxIEMyLjkxMjEsMjYuMjIyMSAyLjAxNjEsMjUuMzI2MSAyLjAxNjEsMjQuMjIyMSBDMi4wMTYxLDIzLjExODEgMi45MTIxLDIyLjIyMjEgNC4wMTYxLDIyLjIyMjEgQzUuMTIwMSwyMi4yMjIxIDYuMDE2MSwyMy4xMTgxIDYuMDE2MSwyNC4yMjIxIEM2LjAxMzEsMjUuMzI1MSA1LjExOTEsMjYuMjE5MSA0LjAxNjEsMjYuMjIyMSBNNC4wMTYxLDYuMjIyMSBDMi45MTIxLDYuMjIyMSAyLjAxNjEsNS4zMjYxIDIuMDE2MSw0LjIyMjEgQzIuMDE2MSwzLjExODEgMi45MTIxLDIuMjIyMSA0LjAxNjEsMi4yMjIxIEM1LjEyMDEsMi4yMjIxIDYuMDE2MSwzLjExODEgNi4wMTYxLDQuMjIyMSBDNi4wMTMxLDUuMzI1MSA1LjExOTEsNi4yMTkxIDQuMDE2MSw2LjIyMjEgTTI0LjAxNjEsMi4yMjIxIEMyNS4xMjAxLDIuMjIyMSAyNi4wMTYxLDMuMTE4MSAyNi4wMTYxLDQuMjIyMSBDMjYuMDE2MSw1LjMyNjEgMjUuMTIwMSw2LjIyMjEgMjQuMDE2MSw2LjIyMjEgQzIyLjkxMjEsNi4yMjIxIDIyLjAxNjEsNS4zMjYxIDIyLjAxNjEsNC4yMjIxIEMyMi4wMTkxLDMuMTE4MSAyMi45MTMxLDIuMjI1MSAyNC4wMTYxLDIuMjIyMSBNMjQuMDE2MSwyMC4wMDAxIEMyMy4zMDUxLDE5Ljk5ODEgMjIuNjA5MSwyMC4yMDcxIDIyLjAxNjEsMjAuNjAwMSBMMTcuNDMwMSwxNi4wMDAxIEwxNi4wMTYxLDE3LjQxNDEgTDIwLjYxNjEsMjIuMDAwMSBDMjAuNDQwMSwyMi4zMTQxIDIwLjMwNjEsMjIuNjUxMSAyMC4yMTYxLDIzLjAwMDEgTDcuODc0MSwyMy4wMDAxIEM3Ljc3NDEsMjIuNjQ1MSA3LjYyMDEsMjIuMzA3MSA3LjQxNjEsMjIuMDAwMSBMMjIuMDE2MSw3LjQwMDEgQzIzLjgwNzEsOC41ODYxIDI2LjUzNzEsOC4wOTQxIDI3Ljc5NDEsNS4xOTgxIEMyNy45MTAxLDQuOTMyMSAyNy45OTIxLDQuNjQ0MSAyOC4wMTYxLDQuMzU1MSBDMjguMjIxMSwxLjk5NDEgMjYuMzcwMSwwLjAwOTEgMjQuMDQ4MSwwLjAwMDEgQzIyLjIxODEsLTAuMDA2OSAyMC42MTcxLDEuMjI4MSAyMC4xNTkxLDMuMDAwMSBMNy45MTYxLDMuMDAwMSBDNy40MzMxLDEuMjQwMSA1Ljg0MTEsMC4wMTUxIDQuMDE2MSwwLjAwMDEgQzEuNjc0MSwwLjAwMDEgLTAuMTk2OSwyLjAxMjEgMC4wMzYxLDQuNDAyMSBDMC4wNjcxLDQuNzIzMSAwLjE2MzEsNS4wNDExIDAuMjk5MSw1LjMzNTEgQzEuNTgyMSw4LjEwOTEgNC4yNTQxLDguNTY3MSA2LjAxNjEsNy40MDAxIEwxMC42MDIxLDEyLjAwMDEgTDEyLjAxNjEsMTAuNTg2MSBMNy40MTYxLDYuMDAwMSBDNy41OTIxLDUuNjg1MSA3LjcyNjEsNS4zNDkxIDcuODE2MSw1LjAwMDEgTDIwLjE1ODEsNS4wMDAxIEMyMC4yNTgxLDUuMzU1MSAyMC40MTIxLDUuNjkyMSAyMC42MTYxLDYuMDAwMSBMNi4wMTYxLDIwLjYwMDEgQzQuMjI0MSwxOS40MTMxIDEuNDk0MSwxOS45MDcxIDAuMjM3MSwyMi44MDUxIEMwLjEyMjEsMjMuMDcwMSAwLjA0MDEsMjMuMzU3MSAwLjAxNjEsMjMuNjQ1MSBDLTAuMTg3OSwyNi4wMDYxIDEuNjYzMSwyNy45OTExIDMuOTg0MSwyOC4wMDAxIEM1LjgxNDEsMjguMDA3MSA3LjQxNTEsMjYuNzcyMSA3Ljg3MzEsMjUuMDAwMSBMMjAuMTE2MSwyNS4wMDAxIEMyMC43MjkxLDI3LjQxMzEgMjMuNDEyMSwyOC43NTUxIDI1Ljc4NzEsMjcuNjEwMSBDMjcuMTAzMSwyNi45NzUxIDI3Ljk4NzEsMjUuNjA0MSAyOC4wMTgxLDI0LjE0MzEgQzI4LjA2ODEsMjEuNzk1MSAyNi4yMTIxLDIwLjAwNjEgMjQuMDE2MSwyMC4wMDAxIiBpZD0iRmlsbC0xIj48L3BhdGg+CiAgICAgICAgPC9nPgogICAgPC9nPgo8L3N2Zz4=;fontStyle=0;fontSize=14;fontFamily=IBM Plex Sans;" parent="HneQTFAt5YI_aULQyN3W-70" vertex="1">
          <mxGeometry x="20" y="7" width="20" height="20" as="geometry" />
        </mxCell>
        <mxCell id="HneQTFAt5YI_aULQyN3W-80" value="" style="rounded=0;whiteSpace=wrap;html=1;fontFamily=IBM Plex Sans;fontSource=fonts%2FIBMPlexSans-Regular.woff;fontSize=14;fillColor=none;spacingBottom=-28;spacingTop=0;labelPosition=-100;verticalLabelPosition=top;align=center;verticalAlign=bottom;spacingLeft=9;spacing=0;expand=0;recursiveResize=0;spacingRight=0;container=0;collapsible=0;strokeColor=#878D96;strokeWidth=2;dashed=1;dashPattern=1 2;" parent="HneQTFAt5YI_aULQyN3W-93" vertex="1">
          <mxGeometry x="-2995" y="370" width="500" height="190" as="geometry">
            <mxRectangle width="670" as="alternateBounds" />
          </mxGeometry>
        </mxCell>
        <mxCell id="HneQTFAt5YI_aULQyN3W-81" value="" style="rounded=0;whiteSpace=wrap;html=1;strokeColor=none;fillColor=#878d96;fontStyle=0;fontSize=14;fontFamily=IBM Plex Sans;" parent="HneQTFAt5YI_aULQyN3W-80" vertex="1">
          <mxGeometry width="7" height="37" as="geometry" />
        </mxCell>
        <mxCell id="HneQTFAt5YI_aULQyN3W-82" value="Zone 2" style="text;html=1;strokeColor=none;fillColor=none;align=left;verticalAlign=middle;whiteSpace=wrap;rounded=0;fontFamily=IBM Plex Sans;fontSize=14;fontStyle=0" parent="HneQTFAt5YI_aULQyN3W-80" vertex="1">
          <mxGeometry x="51" y="8" width="168" height="20" as="geometry" />
        </mxCell>
        <mxCell id="HneQTFAt5YI_aULQyN3W-83" value="" style="shape=image;aspect=fixed;image=data:image/svg+xml,PD94bWwgdmVyc2lvbj0iMS4wIiBlbmNvZGluZz0iVVRGLTgiPz4KPHN2ZyB3aWR0aD0iMjlweCIgaGVpZ2h0PSIyNnB4IiB2aWV3Qm94PSIwIDAgMjkgMjYiIHZlcnNpb249IjEuMSIgeG1sbnM9Imh0dHA6Ly93d3cudzMub3JnLzIwMDAvc3ZnIiB4bWxuczp4bGluaz0iaHR0cDovL3d3dy53My5vcmcvMTk5OS94bGluayI+CiAgICA8IS0tIEdlbmVyYXRvcjogU2tldGNoIDUzICg3MjUyMCkgLSBodHRwczovL3NrZXRjaGFwcC5jb20gLS0+CiAgICA8dGl0bGU+Wm9uZSBCbGFjazwvdGl0bGU+CiAgICA8ZGVzYz5DcmVhdGVkIHdpdGggU2tldGNoLjwvZGVzYz4KICAgIDxnIGlkPSJQYWdlLTEiIHN0cm9rZT0ibm9uZSIgc3Ryb2tlLXdpZHRoPSIxIiBmaWxsPSJub25lIiBmaWxsLXJ1bGU9ImV2ZW5vZGQiPgogICAgICAgIDxnIGlkPSJab25lLUJsYWNrIiB0cmFuc2Zvcm09InRyYW5zbGF0ZSgwLjEyNTAwMCwgMC4wMDAwMDApIiBmaWxsPSIjMDAwMDAwIj4KICAgICAgICAgICAgPGcgaWQ9Ikdyb3VwLTMiPgogICAgICAgICAgICAgICAgPHBhdGggZD0iTTI2LjAwMDEsMjQuMDAwMSBMMjEuMDAwMSwyNC4wMDAxIEwyMS4wMDAxLDIwLjAwMDEgTDIzLjAwMDEsMjAuMDAwMSBMMjMuMDAwMSwxOC4wMDAxIEwyMS4wMDAxLDE4LjAwMDEgTDIxLjAwMDEsMTYuMDAwMSBMMjMuMDAwMSwxNi4wMDAxIEwyMy4wMDAxLDE0LjAwMDEgTDIxLjAwMDEsMTQuMDAwMSBMMjEuMDAwMSwxMi4wMDAxIEwyMy4wMDAxLDEyLjAwMDEgTDIzLjAwMDEsMTAuMDAwMSBMMjEuMDAwMSwxMC4wMDAxIEwyMS4wMDAxLDguMDAwMSBMMjYuMDAwMSw4LjAwMDEgTDI2LjAwMDEsMjQuMDAwMSBaIE05LjAwMDEsMjQuMDAwMSBMMTkuMDAwMSwyNC4wMDAxIEwxOS4wMDAxLDIuMDAwMSBMOS4wMDAxLDIuMDAwMSBMOS4wMDAxLDI0LjAwMDEgWiBNMi4wMDAxLDI0LjAwMDEgTDIuMDAwMSw4LjAwMDEgTDcuMDAwMSw4LjAwMDEgTDcuMDAwMSwxMC4wMDAxIEw1LjAwMDEsMTAuMDAwMSBMNS4wMDAxLDEyLjAwMDEgTDcuMDAwMSwxMi4wMDAxIEw3LjAwMDEsMTQuMDAwMSBMNS4wMDAxLDE0LjAwMDEgTDUuMDAwMSwxNi4wMDAxIEw3LjAwMDEsMTYuMDAwMSBMNy4wMDAxLDE4LjAwMDEgTDUuMDAwMSwxOC4wMDAxIEw1LjAwMDEsMjAuMDAwMSBMNy4wMDAxLDIwLjAwMDEgTDcuMDAwMSwyNC4wMDAxIEwyLjAwMDEsMjQuMDAwMSBaIE0yNi4wMDAxLDYuMDAwMSBMMjEuMDAwMSw2LjAwMDEgTDIxLjAwMDEsMi4wMDAxIEMyMC45OTkxLDAuODk2MSAyMC4xMDQxLDAuMDAxMSAxOS4wMDAxLDAuMDAwMSBMOS4wMDAxLDAuMDAwMSBDNy44OTYxLDAuMDAxMSA3LjAwMTEsMC44OTYxIDcuMDAwMSwyLjAwMDEgTDcuMDAwMSw2LjAwMDEgTDIuMDAwMSw2LjAwMDEgQzAuODk2MSw2LjAwMTEgMC4wMDExLDYuODk2MSAwLjAwMDEsOC4wMDAxIEwwLjAwMDEsMjQuMDAwMSBDMC4wMDExLDI1LjEwNDEgMC44OTYxLDI1Ljk5OTEgMi4wMDAxLDI2LjAwMDEgTDI2LjAwMDEsMjYuMDAwMSBDMjcuMTA0MSwyNS45OTkxIDI3Ljk5OTEsMjUuMTA0MSAyOC4wMDAxLDI0LjAwMDEgTDI4LjAwMDEsOC4wMDAxIEMyNy45OTkxLDYuODk2MSAyNy4xMDQxLDYuMDAxMSAyNi4wMDAxLDYuMDAwMSBMMjYuMDAwMSw2LjAwMDEgWiIgaWQ9IkZpbGwtMSI+PC9wYXRoPgogICAgICAgICAgICA8L2c+CiAgICAgICAgICAgIDxwb2x5Z29uIGlkPSJGaWxsLTQiIHBvaW50cz0iMTIgNiAxNiA2IDE2IDQgMTIgNCI+PC9wb2x5Z29uPgogICAgICAgICAgICA8cG9seWdvbiBpZD0iRmlsbC02IiBwb2ludHM9IjEyIDEwIDE2IDEwIDE2IDggMTIgOCI+PC9wb2x5Z29uPgogICAgICAgICAgICA8cG9seWdvbiBpZD0iRmlsbC03IiBwb2ludHM9IjEyIDE0IDE2IDE0IDE2IDEyIDEyIDEyIj48L3BvbHlnb24+CiAgICAgICAgPC9nPgogICAgPC9nPgo8L3N2Zz4=;fontStyle=0;fontSize=14;fontFamily=IBM Plex Sans;" parent="HneQTFAt5YI_aULQyN3W-80" vertex="1">
          <mxGeometry x="20" y="8.07" width="20" height="17.93" as="geometry" />
        </mxCell>
        <mxCell id="HneQTFAt5YI_aULQyN3W-84" style="edgeStyle=orthogonalEdgeStyle;rounded=0;orthogonalLoop=1;jettySize=auto;html=1;exitX=0;exitY=0.5;exitDx=0;exitDy=0;entryX=1.009;entryY=0.22;entryDx=0;entryDy=0;entryPerimeter=0;fontFamily=IBM Plex Sans;fontSource=fonts%2FIBMPlexSans-Regular.woff;fontSize=14;startArrow=oval;startFill=1;strokeColor=#198038;" parent="HneQTFAt5YI_aULQyN3W-80" edge="1">
          <mxGeometry relative="1" as="geometry" />
        </mxCell>
        <mxCell id="HneQTFAt5YI_aULQyN3W-85" value="" style="rounded=0;whiteSpace=wrap;html=1;fontFamily=IBM Plex Sans;fontSize=14;spacingBottom=-28;spacingTop=0;labelPosition=-100;verticalLabelPosition=top;align=center;verticalAlign=bottom;spacingLeft=9;spacing=0;expand=0;recursiveResize=0;spacingRight=0;container=1;collapsible=0;strokeColor=#1192E8;fillColor=#E5F6FF;fontStyle=0" parent="HneQTFAt5YI_aULQyN3W-80" vertex="1">
          <mxGeometry x="55" y="30" width="420" height="142" as="geometry">
            <mxRectangle width="670" as="alternateBounds" />
          </mxGeometry>
        </mxCell>
        <mxCell id="HneQTFAt5YI_aULQyN3W-86" value="" style="rounded=0;whiteSpace=wrap;html=1;strokeColor=none;fillColor=#1192E8;fontStyle=0;fontSize=14;fontFamily=IBM Plex Sans;" parent="HneQTFAt5YI_aULQyN3W-85" vertex="1">
          <mxGeometry width="7" height="37" as="geometry" />
        </mxCell>
        <mxCell id="HneQTFAt5YI_aULQyN3W-87" value="Subnet 2" style="text;html=1;strokeColor=none;fillColor=none;align=left;verticalAlign=middle;whiteSpace=wrap;rounded=0;fontFamily=IBM Plex Sans;fontSize=14;fontStyle=0" parent="HneQTFAt5YI_aULQyN3W-85" vertex="1">
          <mxGeometry x="51" y="8" width="163" height="20" as="geometry" />
        </mxCell>
        <mxCell id="HneQTFAt5YI_aULQyN3W-88" value="" style="shape=image;aspect=fixed;image=data:image/svg+xml,PD94bWwgdmVyc2lvbj0iMS4wIiBlbmNvZGluZz0iVVRGLTgiPz4KPHN2ZyB3aWR0aD0iMjlweCIgaGVpZ2h0PSIyOXB4IiB2aWV3Qm94PSIwIDAgMjkgMjkiIHZlcnNpb249IjEuMSIgeG1sbnM9Imh0dHA6Ly93d3cudzMub3JnLzIwMDAvc3ZnIiB4bWxuczp4bGluaz0iaHR0cDovL3d3dy53My5vcmcvMTk5OS94bGluayI+CiAgICA8IS0tIEdlbmVyYXRvcjogU2tldGNoIDUzICg3MjUyMCkgLSBodHRwczovL3NrZXRjaGFwcC5jb20gLS0+CiAgICA8dGl0bGU+SUJNIFN1Ym5ldCA6IEFDTCBCbGFjazwvdGl0bGU+CiAgICA8ZGVzYz5DcmVhdGVkIHdpdGggU2tldGNoLjwvZGVzYz4KICAgIDxnIGlkPSJQYWdlLTEiIHN0cm9rZT0ibm9uZSIgc3Ryb2tlLXdpZHRoPSIxIiBmaWxsPSJub25lIiBmaWxsLXJ1bGU9ImV2ZW5vZGQiPgogICAgICAgIDxnIGlkPSJJQk0tU3VibmV0LTotQUNMLUJsYWNrIiB0cmFuc2Zvcm09InRyYW5zbGF0ZSgwLjc1MDAwMCwgMC4wNzQ5NTkpIiBmaWxsPSIjMDAwMDAwIj4KICAgICAgICAgICAgPHBhdGggZD0iTTI0LjAxNjEsMjYuMjIyMSBDMjIuOTEyMSwyNi4yMjIxIDIyLjAxNjEsMjUuMzI2MSAyMi4wMTYxLDI0LjIyMjEgQzIyLjAxNjEsMjMuMTE4MSAyMi45MTIxLDIyLjIyMjEgMjQuMDE2MSwyMi4yMjIxIEMyNS4xMjAxLDIyLjIyMjEgMjYuMDE2MSwyMy4xMTgxIDI2LjAxNjEsMjQuMjIyMSBDMjYuMDEzMSwyNS4zMjUxIDI1LjExOTEsMjYuMjE5MSAyNC4wMTYxLDI2LjIyMjEgTTQuMDE2MSwyNi4yMjIxIEMyLjkxMjEsMjYuMjIyMSAyLjAxNjEsMjUuMzI2MSAyLjAxNjEsMjQuMjIyMSBDMi4wMTYxLDIzLjExODEgMi45MTIxLDIyLjIyMjEgNC4wMTYxLDIyLjIyMjEgQzUuMTIwMSwyMi4yMjIxIDYuMDE2MSwyMy4xMTgxIDYuMDE2MSwyNC4yMjIxIEM2LjAxMzEsMjUuMzI1MSA1LjExOTEsMjYuMjE5MSA0LjAxNjEsMjYuMjIyMSBNNC4wMTYxLDYuMjIyMSBDMi45MTIxLDYuMjIyMSAyLjAxNjEsNS4zMjYxIDIuMDE2MSw0LjIyMjEgQzIuMDE2MSwzLjExODEgMi45MTIxLDIuMjIyMSA0LjAxNjEsMi4yMjIxIEM1LjEyMDEsMi4yMjIxIDYuMDE2MSwzLjExODEgNi4wMTYxLDQuMjIyMSBDNi4wMTMxLDUuMzI1MSA1LjExOTEsNi4yMTkxIDQuMDE2MSw2LjIyMjEgTTI0LjAxNjEsMi4yMjIxIEMyNS4xMjAxLDIuMjIyMSAyNi4wMTYxLDMuMTE4MSAyNi4wMTYxLDQuMjIyMSBDMjYuMDE2MSw1LjMyNjEgMjUuMTIwMSw2LjIyMjEgMjQuMDE2MSw2LjIyMjEgQzIyLjkxMjEsNi4yMjIxIDIyLjAxNjEsNS4zMjYxIDIyLjAxNjEsNC4yMjIxIEMyMi4wMTkxLDMuMTE4MSAyMi45MTMxLDIuMjI1MSAyNC4wMTYxLDIuMjIyMSBNMjQuMDE2MSwyMC4wMDAxIEMyMy4zMDUxLDE5Ljk5ODEgMjIuNjA5MSwyMC4yMDcxIDIyLjAxNjEsMjAuNjAwMSBMMTcuNDMwMSwxNi4wMDAxIEwxNi4wMTYxLDE3LjQxNDEgTDIwLjYxNjEsMjIuMDAwMSBDMjAuNDQwMSwyMi4zMTQxIDIwLjMwNjEsMjIuNjUxMSAyMC4yMTYxLDIzLjAwMDEgTDcuODc0MSwyMy4wMDAxIEM3Ljc3NDEsMjIuNjQ1MSA3LjYyMDEsMjIuMzA3MSA3LjQxNjEsMjIuMDAwMSBMMjIuMDE2MSw3LjQwMDEgQzIzLjgwNzEsOC41ODYxIDI2LjUzNzEsOC4wOTQxIDI3Ljc5NDEsNS4xOTgxIEMyNy45MTAxLDQuOTMyMSAyNy45OTIxLDQuNjQ0MSAyOC4wMTYxLDQuMzU1MSBDMjguMjIxMSwxLjk5NDEgMjYuMzcwMSwwLjAwOTEgMjQuMDQ4MSwwLjAwMDEgQzIyLjIxODEsLTAuMDA2OSAyMC42MTcxLDEuMjI4MSAyMC4xNTkxLDMuMDAwMSBMNy45MTYxLDMuMDAwMSBDNy40MzMxLDEuMjQwMSA1Ljg0MTEsMC4wMTUxIDQuMDE2MSwwLjAwMDEgQzEuNjc0MSwwLjAwMDEgLTAuMTk2OSwyLjAxMjEgMC4wMzYxLDQuNDAyMSBDMC4wNjcxLDQuNzIzMSAwLjE2MzEsNS4wNDExIDAuMjk5MSw1LjMzNTEgQzEuNTgyMSw4LjEwOTEgNC4yNTQxLDguNTY3MSA2LjAxNjEsNy40MDAxIEwxMC42MDIxLDEyLjAwMDEgTDEyLjAxNjEsMTAuNTg2MSBMNy40MTYxLDYuMDAwMSBDNy41OTIxLDUuNjg1MSA3LjcyNjEsNS4zNDkxIDcuODE2MSw1LjAwMDEgTDIwLjE1ODEsNS4wMDAxIEMyMC4yNTgxLDUuMzU1MSAyMC40MTIxLDUuNjkyMSAyMC42MTYxLDYuMDAwMSBMNi4wMTYxLDIwLjYwMDEgQzQuMjI0MSwxOS40MTMxIDEuNDk0MSwxOS45MDcxIDAuMjM3MSwyMi44MDUxIEMwLjEyMjEsMjMuMDcwMSAwLjA0MDEsMjMuMzU3MSAwLjAxNjEsMjMuNjQ1MSBDLTAuMTg3OSwyNi4wMDYxIDEuNjYzMSwyNy45OTExIDMuOTg0MSwyOC4wMDAxIEM1LjgxNDEsMjguMDA3MSA3LjQxNTEsMjYuNzcyMSA3Ljg3MzEsMjUuMDAwMSBMMjAuMTE2MSwyNS4wMDAxIEMyMC43MjkxLDI3LjQxMzEgMjMuNDEyMSwyOC43NTUxIDI1Ljc4NzEsMjcuNjEwMSBDMjcuMTAzMSwyNi45NzUxIDI3Ljk4NzEsMjUuNjA0MSAyOC4wMTgxLDI0LjE0MzEgQzI4LjA2ODEsMjEuNzk1MSAyNi4yMTIxLDIwLjAwNjEgMjQuMDE2MSwyMC4wMDAxIiBpZD0iRmlsbC0xIj48L3BhdGg+CiAgICAgICAgPC9nPgogICAgPC9nPgo8L3N2Zz4=;fontStyle=0;fontSize=14;fontFamily=IBM Plex Sans;" parent="HneQTFAt5YI_aULQyN3W-85" vertex="1">
          <mxGeometry x="20" y="7" width="20" height="20" as="geometry" />
        </mxCell>
        <mxCell id="HneQTFAt5YI_aULQyN3W-44" value="ALB" style="shape=image;aspect=fixed;image=data:image/svg+xml,PHN2ZyBpZD0iTGF5ZXJfMSIgZGF0YS1uYW1lPSJMYXllciAxIiB4bWxucz0iaHR0cDovL3d3dy53My5vcmcvMjAwMC9zdmciIHZpZXdCb3g9IjAgMCA0OSA0OSI+PGRlZnM+PHN0eWxlPi5jbHMtMXtmaWxsOiMxMTkyZTg7fS5jbHMtMntmaWxsOiNmZmY7fS5jbHMtM3tmaWxsOm5vbmU7fTwvc3R5bGU+PC9kZWZzPjxyZWN0IGNsYXNzPSJjbHMtMSIgeD0iMC41IiB5PSIwLjUiIHdpZHRoPSI0OCIgaGVpZ2h0PSI0OCIgcng9IjgiLz48cGF0aCBjbGFzcz0iY2xzLTIiIGQ9Ik0zMC4xMiwyNC41aC01VjIzLjMxSDIzLjg4VjI0LjVoLTVhMS4yMywxLjIzLDAsMCwwLTEuMjYsMS4xOXYzLjU2aDEuMjZWMjUuNjloNXYzLjU2aDEuMjRWMjUuNjloNXYzLjU2aDEuMjZWMjUuNjlBMS4yMywxLjIzLDAsMCwwLDMwLjEyLDI0LjVaIi8+PHJlY3QgY2xhc3M9ImNscy0yIiB4PSIxNyIgeT0iMzAuNDMiIHdpZHRoPSIyLjUiIGhlaWdodD0iMi4zNyIvPjxyZWN0IGNsYXNzPSJjbHMtMiIgeD0iMjMuMjUiIHk9IjMwLjQzIiB3aWR0aD0iMi41IiBoZWlnaHQ9IjIuMzciLz48cmVjdCBjbGFzcz0iY2xzLTIiIHg9IjI5LjUiIHk9IjMwLjQzIiB3aWR0aD0iMi41IiBoZWlnaHQ9IjIuMzciLz48cmVjdCBjbGFzcz0iY2xzLTMiIHg9IjE0LjUiIHk9IjE1IiB3aWR0aD0iMjAiIGhlaWdodD0iMTguOTkiLz48cGF0aCBjbGFzcz0iY2xzLTIiIGQ9Ik0yMC4xMiwxNi4xOXY1Ljk0aDguNzZWMTYuMTlabTEuMjYsMS4xOWgxLjI0djMuNTZIMjEuMzhabTYuMjQsMy41NkgyMy44OFYxNy4zOGgzLjc0WiIvPjwvc3ZnPg==;fontFamily=IBM Plex Sans;fontSize=14;labelPosition=center;verticalLabelPosition=bottom;align=center;verticalAlign=top;spacingTop=-7;fontStyle=0" parent="HneQTFAt5YI_aULQyN3W-85" vertex="1">
          <mxGeometry x="106" y="43" width="48" height="48" as="geometry" />
        </mxCell>
        <mxCell id="P5f-9x0DIOcbd5ffzTkL-40" style="edgeStyle=orthogonalEdgeStyle;rounded=0;orthogonalLoop=1;jettySize=auto;html=1;entryX=0.5;entryY=0;entryDx=0;entryDy=0;endArrow=block;endFill=1;strokeWidth=2;startArrow=none;startFill=1;fontStyle=0;fontSize=14;fontFamily=IBM Plex Sans;" parent="HneQTFAt5YI_aULQyN3W-85" target="HneQTFAt5YI_aULQyN3W-46" edge="1">
          <mxGeometry relative="1" as="geometry">
            <Array as="points">
              <mxPoint x="154" y="64" />
              <mxPoint x="195" y="64" />
              <mxPoint x="195" y="20" />
              <mxPoint x="324" y="20" />
            </Array>
            <mxPoint x="154" y="64" as="sourcePoint" />
            <mxPoint x="324" y="39.5" as="targetPoint" />
          </mxGeometry>
        </mxCell>
        <mxCell id="P5f-9x0DIOcbd5ffzTkL-39" style="edgeStyle=orthogonalEdgeStyle;rounded=0;orthogonalLoop=1;jettySize=auto;html=1;entryX=0.5;entryY=0;entryDx=0;entryDy=0;endArrow=block;endFill=1;strokeWidth=2;startArrow=oval;startFill=1;fontStyle=0;fontSize=14;fontFamily=IBM Plex Sans;" parent="HneQTFAt5YI_aULQyN3W-85" target="HneQTFAt5YI_aULQyN3W-45" edge="1">
          <mxGeometry relative="1" as="geometry">
            <Array as="points">
              <mxPoint x="154" y="64" />
              <mxPoint x="195" y="64" />
              <mxPoint x="195" y="20" />
              <mxPoint x="234" y="20" />
            </Array>
            <mxPoint x="154" y="64" as="sourcePoint" />
            <mxPoint x="234" y="39.5" as="targetPoint" />
          </mxGeometry>
        </mxCell>
        <mxCell id="HneQTFAt5YI_aULQyN3W-45" value="Worker&#xa;Node 1" style="shape=image;aspect=fixed;image=data:image/svg+xml,PHN2ZyBpZD0iTGF5ZXJfMSIgZGF0YS1uYW1lPSJMYXllciAxIiB4bWxucz0iaHR0cDovL3d3dy53My5vcmcvMjAwMC9zdmciIHZpZXdCb3g9IjAgMCA0OSA0OSI+PGRlZnM+PHN0eWxlPi5jbHMtMXtmaWxsOiMxOTgwMzg7fS5jbHMtMntmaWxsOiNmZmY7fS5jbHMtM3tmaWxsOm5vbmU7fTwvc3R5bGU+PC9kZWZzPjxyZWN0IGNsYXNzPSJjbHMtMSIgeD0iMC41IiB5PSIwLjUiIHdpZHRoPSI0OCIgaGVpZ2h0PSI0OCIvPjxjaXJjbGUgY2xhc3M9ImNscy0yIiBjeD0iMTguODgiIGN5PSIyOC44OCIgcj0iMC42MyIvPjxyZWN0IGNsYXNzPSJjbHMtMiIgeD0iMTUuNzUiIHk9IjE4LjI1IiB3aWR0aD0iMi41IiBoZWlnaHQ9IjEuMjUiLz48cmVjdCBjbGFzcz0iY2xzLTIiIHg9IjE5LjUiIHk9IjE4LjI1IiB3aWR0aD0iMi41IiBoZWlnaHQ9IjEuMjUiLz48cmVjdCBjbGFzcz0iY2xzLTIiIHg9IjIzLjI1IiB5PSIxOC4yNSIgd2lkdGg9IjIuNSIgaGVpZ2h0PSIxLjI1Ii8+PHJlY3QgY2xhc3M9ImNscy0yIiB4PSIyNyIgeT0iMTguMjUiIHdpZHRoPSIyLjUiIGhlaWdodD0iMS4yNSIvPjxyZWN0IGNsYXNzPSJjbHMtMiIgeD0iMzAuNzUiIHk9IjE4LjI1IiB3aWR0aD0iMi41IiBoZWlnaHQ9IjEuMjUiLz48cGF0aCBjbGFzcz0iY2xzLTIiIGQ9Ik0zMiwzMkgxN2ExLjI1LDEuMjUsMCwwLDEtMS4yNS0xLjI1VjI3QTEuMjUsMS4yNSwwLDAsMSwxNywyNS43NUgzMkExLjI1LDEuMjUsMCwwLDEsMzMuMjUsMjd2My43NUExLjI1LDEuMjUsMCwwLDEsMzIsMzJaTTE3LDI3djMuNzVIMzJWMjdaIi8+PHJlY3QgY2xhc3M9ImNscy0zIiB4PSIxNC41IiB5PSIxNC41IiB3aWR0aD0iMjAiIGhlaWdodD0iMjAiLz48cmVjdCBjbGFzcz0iY2xzLTIiIHg9IjE1Ljc1IiB5PSIyMiIgd2lkdGg9IjE3LjUiIGhlaWdodD0iMS4yNSIvPjwvc3ZnPg==;fontFamily=IBM Plex Sans;fontSize=14;spacingTop=-7;labelPosition=center;verticalLabelPosition=bottom;align=center;verticalAlign=top;fontStyle=0" parent="HneQTFAt5YI_aULQyN3W-85" vertex="1">
          <mxGeometry x="210" y="43" width="48" height="48" as="geometry" />
        </mxCell>
        <mxCell id="HneQTFAt5YI_aULQyN3W-46" value="Worker&#xa;Node 2" style="shape=image;aspect=fixed;image=data:image/svg+xml,PHN2ZyBpZD0iTGF5ZXJfMSIgZGF0YS1uYW1lPSJMYXllciAxIiB4bWxucz0iaHR0cDovL3d3dy53My5vcmcvMjAwMC9zdmciIHZpZXdCb3g9IjAgMCA0OSA0OSI+PGRlZnM+PHN0eWxlPi5jbHMtMXtmaWxsOiMxOTgwMzg7fS5jbHMtMntmaWxsOiNmZmY7fS5jbHMtM3tmaWxsOm5vbmU7fTwvc3R5bGU+PC9kZWZzPjxyZWN0IGNsYXNzPSJjbHMtMSIgeD0iMC41IiB5PSIwLjUiIHdpZHRoPSI0OCIgaGVpZ2h0PSI0OCIvPjxjaXJjbGUgY2xhc3M9ImNscy0yIiBjeD0iMTguODgiIGN5PSIyOC44OCIgcj0iMC42MyIvPjxyZWN0IGNsYXNzPSJjbHMtMiIgeD0iMTUuNzUiIHk9IjE4LjI1IiB3aWR0aD0iMi41IiBoZWlnaHQ9IjEuMjUiLz48cmVjdCBjbGFzcz0iY2xzLTIiIHg9IjE5LjUiIHk9IjE4LjI1IiB3aWR0aD0iMi41IiBoZWlnaHQ9IjEuMjUiLz48cmVjdCBjbGFzcz0iY2xzLTIiIHg9IjIzLjI1IiB5PSIxOC4yNSIgd2lkdGg9IjIuNSIgaGVpZ2h0PSIxLjI1Ii8+PHJlY3QgY2xhc3M9ImNscy0yIiB4PSIyNyIgeT0iMTguMjUiIHdpZHRoPSIyLjUiIGhlaWdodD0iMS4yNSIvPjxyZWN0IGNsYXNzPSJjbHMtMiIgeD0iMzAuNzUiIHk9IjE4LjI1IiB3aWR0aD0iMi41IiBoZWlnaHQ9IjEuMjUiLz48cGF0aCBjbGFzcz0iY2xzLTIiIGQ9Ik0zMiwzMkgxN2ExLjI1LDEuMjUsMCwwLDEtMS4yNS0xLjI1VjI3QTEuMjUsMS4yNSwwLDAsMSwxNywyNS43NUgzMkExLjI1LDEuMjUsMCwwLDEsMzMuMjUsMjd2My43NUExLjI1LDEuMjUsMCwwLDEsMzIsMzJaTTE3LDI3djMuNzVIMzJWMjdaIi8+PHJlY3QgY2xhc3M9ImNscy0zIiB4PSIxNC41IiB5PSIxNC41IiB3aWR0aD0iMjAiIGhlaWdodD0iMjAiLz48cmVjdCBjbGFzcz0iY2xzLTIiIHg9IjE1Ljc1IiB5PSIyMiIgd2lkdGg9IjE3LjUiIGhlaWdodD0iMS4yNSIvPjwvc3ZnPg==;fontFamily=IBM Plex Sans;fontSize=14;spacingTop=-7;labelPosition=center;verticalLabelPosition=bottom;align=center;verticalAlign=top;fontStyle=0" parent="HneQTFAt5YI_aULQyN3W-85" vertex="1">
          <mxGeometry x="300" y="43" width="48" height="48" as="geometry" />
        </mxCell>
        <mxCell id="HneQTFAt5YI_aULQyN3W-79" value="Cluster" style="" parent="0" />
        <mxCell id="HneQTFAt5YI_aULQyN3W-11" value="&lt;div style=&quot;font-size: 14px;&quot;&gt;&lt;span style=&quot;font-size: 14px;&quot;&gt;IKS Cluster&lt;/span&gt;&lt;/div&gt;" style="rounded=0;whiteSpace=wrap;html=1;align=left;verticalAlign=top;horizontal=1;spacingLeft=20;dashed=1;fillColor=none;strokeColor=#198038;strokeWidth=2;fontStyle=0;fontSize=14;fontFamily=IBM Plex Sans;" parent="HneQTFAt5YI_aULQyN3W-79" vertex="1">
          <mxGeometry x="-2953" y="129" width="435" height="600" as="geometry" />
        </mxCell>
        <UserObject placeholders="1" label="%Element-Name%&lt;br style=&quot;font-size: 14px;&quot;&gt;&lt;font style=&quot;font-size: 14px;&quot;&gt;%Element-ID%&lt;/font&gt;" Element-ID="" Element-Name="Master" Icon-Name="function" Tag-Text="" id="6rSDWUe60bOs3Fv4IE0q-1">
          <mxCell style="shape=mxgraph.ibm2mondrian.base;shapeType=lg;shapeLayout=expanded;colorFamily=green;colorBackground=veryLight:veryLight;strokeWidth=1;html=1;whiteSpace=wrap;metaEdit=1;collapsible=0;recursiveResize=0;expand=0;fontFamily=IBM Plex Sans;fontSize=14;image=;verticalAlign=top;align=center;spacing=0;spacingLeft=12;spacingRight=12;spacingTop=0;spacingBottom=0;container=1;iconImage=noIcon;verticalLabelPosition=middle;labelPosition=center;rotation=-90;fillColor=#00994D;opacity=20;horizontal=1;textDirection=ltr;colorFillIcon=dark;fontStyle=0" parent="HneQTFAt5YI_aULQyN3W-79" vertex="1">
            <mxGeometry x="-3120" y="425" width="460" height="80" as="geometry" />
          </mxCell>
        </UserObject>
        <mxCell id="HneQTFAt5YI_aULQyN3W-59" value="Nodes" style="" parent="0" />
        <mxCell id="P5f-9x0DIOcbd5ffzTkL-27" style="edgeStyle=orthogonalEdgeStyle;rounded=0;orthogonalLoop=1;jettySize=auto;html=1;startArrow=oval;startFill=1;endArrow=block;endFill=1;strokeWidth=2;entryX=0;entryY=0.5;entryDx=0;entryDy=0;fontStyle=0;fontSize=14;fontFamily=IBM Plex Sans;" parent="HneQTFAt5YI_aULQyN3W-59" source="HneQTFAt5YI_aULQyN3W-25" target="HneQTFAt5YI_aULQyN3W-41" edge="1">
          <mxGeometry relative="1" as="geometry">
            <Array as="points">
              <mxPoint x="-3070" y="468" />
              <mxPoint x="-3070" y="271" />
            </Array>
            <mxPoint x="-2845" y="275" as="targetPoint" />
            <mxPoint x="-3202" y="472.00000000000045" as="sourcePoint" />
          </mxGeometry>
        </mxCell>
        <mxCell id="P5f-9x0DIOcbd5ffzTkL-60" style="rounded=0;orthogonalLoop=1;jettySize=auto;html=1;fontSize=14;startArrow=oval;startFill=1;endArrow=block;endFill=1;strokeWidth=2;entryX=0.002;entryY=0.437;entryDx=0;entryDy=0;entryPerimeter=0;fontStyle=0;fontFamily=IBM Plex Sans;" parent="HneQTFAt5YI_aULQyN3W-59" source="HneQTFAt5YI_aULQyN3W-25" target="HneQTFAt5YI_aULQyN3W-44" edge="1">
          <mxGeometry relative="1" as="geometry">
            <mxPoint x="-2825" y="472" as="targetPoint" />
            <mxPoint x="-3205" y="472" as="sourcePoint" />
          </mxGeometry>
        </mxCell>
        <mxCell id="P5f-9x0DIOcbd5ffzTkL-61" style="edgeStyle=orthogonalEdgeStyle;rounded=0;orthogonalLoop=1;jettySize=auto;html=1;exitX=1;exitY=0.5;exitDx=0;exitDy=0;fontSize=14;startArrow=oval;startFill=1;endArrow=block;endFill=1;strokeWidth=2;entryX=0;entryY=0.5;entryDx=0;entryDy=0;fontStyle=0;fontFamily=IBM Plex Sans;" parent="HneQTFAt5YI_aULQyN3W-59" source="HneQTFAt5YI_aULQyN3W-25" target="HneQTFAt5YI_aULQyN3W-47" edge="1">
          <mxGeometry relative="1" as="geometry">
            <Array as="points">
              <mxPoint x="-3070" y="468" />
              <mxPoint x="-3070" y="664" />
            </Array>
            <mxPoint x="-2810" y="660" as="targetPoint" />
            <mxPoint x="-3202" y="472.00000000000045" as="sourcePoint" />
          </mxGeometry>
        </mxCell>
        <mxCell id="P5f-9x0DIOcbd5ffzTkL-49" style="edgeStyle=orthogonalEdgeStyle;rounded=0;orthogonalLoop=1;jettySize=auto;html=1;entryX=0.5;entryY=0;entryDx=0;entryDy=0;endArrow=block;endFill=1;strokeWidth=2;startArrow=oval;startFill=1;exitX=1;exitY=0.5;exitDx=0;exitDy=0;fontStyle=0;fontSize=14;fontFamily=IBM Plex Sans;" parent="HneQTFAt5YI_aULQyN3W-59" source="HneQTFAt5YI_aULQyN3W-47" target="HneQTFAt5YI_aULQyN3W-49" edge="1">
          <mxGeometry relative="1" as="geometry">
            <Array as="points">
              <mxPoint x="-2725" y="664" />
              <mxPoint x="-2725" y="620" />
              <mxPoint x="-2596" y="620" />
            </Array>
            <mxPoint x="-2762" y="664" as="sourcePoint" />
            <mxPoint x="-2596" y="620" as="targetPoint" />
          </mxGeometry>
        </mxCell>
        <mxCell id="P5f-9x0DIOcbd5ffzTkL-48" style="edgeStyle=orthogonalEdgeStyle;rounded=0;orthogonalLoop=1;jettySize=auto;html=1;entryX=0.5;entryY=0;entryDx=0;entryDy=0;endArrow=block;endFill=1;strokeWidth=2;startArrow=oval;startFill=1;fontStyle=0;fontSize=14;fontFamily=IBM Plex Sans;" parent="HneQTFAt5YI_aULQyN3W-59" target="HneQTFAt5YI_aULQyN3W-48" edge="1">
          <mxGeometry relative="1" as="geometry">
            <Array as="points">
              <mxPoint x="-2725" y="664" />
              <mxPoint x="-2725" y="620" />
              <mxPoint x="-2686" y="620" />
            </Array>
            <mxPoint x="-2765" y="664" as="sourcePoint" />
            <mxPoint x="-2686" y="620" as="targetPoint" />
          </mxGeometry>
        </mxCell>
        <mxCell id="HneQTFAt5YI_aULQyN3W-47" value="ALB" style="shape=image;aspect=fixed;image=data:image/svg+xml,PHN2ZyBpZD0iTGF5ZXJfMSIgZGF0YS1uYW1lPSJMYXllciAxIiB4bWxucz0iaHR0cDovL3d3dy53My5vcmcvMjAwMC9zdmciIHZpZXdCb3g9IjAgMCA0OSA0OSI+PGRlZnM+PHN0eWxlPi5jbHMtMXtmaWxsOiMxMTkyZTg7fS5jbHMtMntmaWxsOiNmZmY7fS5jbHMtM3tmaWxsOm5vbmU7fTwvc3R5bGU+PC9kZWZzPjxyZWN0IGNsYXNzPSJjbHMtMSIgeD0iMC41IiB5PSIwLjUiIHdpZHRoPSI0OCIgaGVpZ2h0PSI0OCIgcng9IjgiLz48cGF0aCBjbGFzcz0iY2xzLTIiIGQ9Ik0zMC4xMiwyNC41aC01VjIzLjMxSDIzLjg4VjI0LjVoLTVhMS4yMywxLjIzLDAsMCwwLTEuMjYsMS4xOXYzLjU2aDEuMjZWMjUuNjloNXYzLjU2aDEuMjRWMjUuNjloNXYzLjU2aDEuMjZWMjUuNjlBMS4yMywxLjIzLDAsMCwwLDMwLjEyLDI0LjVaIi8+PHJlY3QgY2xhc3M9ImNscy0yIiB4PSIxNyIgeT0iMzAuNDMiIHdpZHRoPSIyLjUiIGhlaWdodD0iMi4zNyIvPjxyZWN0IGNsYXNzPSJjbHMtMiIgeD0iMjMuMjUiIHk9IjMwLjQzIiB3aWR0aD0iMi41IiBoZWlnaHQ9IjIuMzciLz48cmVjdCBjbGFzcz0iY2xzLTIiIHg9IjI5LjUiIHk9IjMwLjQzIiB3aWR0aD0iMi41IiBoZWlnaHQ9IjIuMzciLz48cmVjdCBjbGFzcz0iY2xzLTMiIHg9IjE0LjUiIHk9IjE1IiB3aWR0aD0iMjAiIGhlaWdodD0iMTguOTkiLz48cGF0aCBjbGFzcz0iY2xzLTIiIGQ9Ik0yMC4xMiwxNi4xOXY1Ljk0aDguNzZWMTYuMTlabTEuMjYsMS4xOWgxLjI0djMuNTZIMjEuMzhabTYuMjQsMy41NkgyMy44OFYxNy4zOGgzLjc0WiIvPjwvc3ZnPg==;fontFamily=IBM Plex Sans;fontSize=14;labelPosition=center;verticalLabelPosition=bottom;align=center;verticalAlign=top;spacingTop=-7;fontStyle=0" parent="HneQTFAt5YI_aULQyN3W-59" vertex="1">
          <mxGeometry x="-2814" y="640" width="48" height="48" as="geometry" />
        </mxCell>
        <mxCell id="HneQTFAt5YI_aULQyN3W-48" value="Worker&#xa;Node 1" style="shape=image;aspect=fixed;image=data:image/svg+xml,PHN2ZyBpZD0iTGF5ZXJfMSIgZGF0YS1uYW1lPSJMYXllciAxIiB4bWxucz0iaHR0cDovL3d3dy53My5vcmcvMjAwMC9zdmciIHZpZXdCb3g9IjAgMCA0OSA0OSI+PGRlZnM+PHN0eWxlPi5jbHMtMXtmaWxsOiMxOTgwMzg7fS5jbHMtMntmaWxsOiNmZmY7fS5jbHMtM3tmaWxsOm5vbmU7fTwvc3R5bGU+PC9kZWZzPjxyZWN0IGNsYXNzPSJjbHMtMSIgeD0iMC41IiB5PSIwLjUiIHdpZHRoPSI0OCIgaGVpZ2h0PSI0OCIvPjxjaXJjbGUgY2xhc3M9ImNscy0yIiBjeD0iMTguODgiIGN5PSIyOC44OCIgcj0iMC42MyIvPjxyZWN0IGNsYXNzPSJjbHMtMiIgeD0iMTUuNzUiIHk9IjE4LjI1IiB3aWR0aD0iMi41IiBoZWlnaHQ9IjEuMjUiLz48cmVjdCBjbGFzcz0iY2xzLTIiIHg9IjE5LjUiIHk9IjE4LjI1IiB3aWR0aD0iMi41IiBoZWlnaHQ9IjEuMjUiLz48cmVjdCBjbGFzcz0iY2xzLTIiIHg9IjIzLjI1IiB5PSIxOC4yNSIgd2lkdGg9IjIuNSIgaGVpZ2h0PSIxLjI1Ii8+PHJlY3QgY2xhc3M9ImNscy0yIiB4PSIyNyIgeT0iMTguMjUiIHdpZHRoPSIyLjUiIGhlaWdodD0iMS4yNSIvPjxyZWN0IGNsYXNzPSJjbHMtMiIgeD0iMzAuNzUiIHk9IjE4LjI1IiB3aWR0aD0iMi41IiBoZWlnaHQ9IjEuMjUiLz48cGF0aCBjbGFzcz0iY2xzLTIiIGQ9Ik0zMiwzMkgxN2ExLjI1LDEuMjUsMCwwLDEtMS4yNS0xLjI1VjI3QTEuMjUsMS4yNSwwLDAsMSwxNywyNS43NUgzMkExLjI1LDEuMjUsMCwwLDEsMzMuMjUsMjd2My43NUExLjI1LDEuMjUsMCwwLDEsMzIsMzJaTTE3LDI3djMuNzVIMzJWMjdaIi8+PHJlY3QgY2xhc3M9ImNscy0zIiB4PSIxNC41IiB5PSIxNC41IiB3aWR0aD0iMjAiIGhlaWdodD0iMjAiLz48cmVjdCBjbGFzcz0iY2xzLTIiIHg9IjE1Ljc1IiB5PSIyMiIgd2lkdGg9IjE3LjUiIGhlaWdodD0iMS4yNSIvPjwvc3ZnPg==;fontFamily=IBM Plex Sans;fontSize=14;spacingTop=-7;labelPosition=center;verticalLabelPosition=bottom;align=center;verticalAlign=top;fontStyle=0" parent="HneQTFAt5YI_aULQyN3W-59" vertex="1">
          <mxGeometry x="-2710" y="640" width="48" height="48" as="geometry" />
        </mxCell>
        <mxCell id="HneQTFAt5YI_aULQyN3W-49" value="Worker&#xa;Node 2" style="shape=image;aspect=fixed;image=data:image/svg+xml,PHN2ZyBpZD0iTGF5ZXJfMSIgZGF0YS1uYW1lPSJMYXllciAxIiB4bWxucz0iaHR0cDovL3d3dy53My5vcmcvMjAwMC9zdmciIHZpZXdCb3g9IjAgMCA0OSA0OSI+PGRlZnM+PHN0eWxlPi5jbHMtMXtmaWxsOiMxOTgwMzg7fS5jbHMtMntmaWxsOiNmZmY7fS5jbHMtM3tmaWxsOm5vbmU7fTwvc3R5bGU+PC9kZWZzPjxyZWN0IGNsYXNzPSJjbHMtMSIgeD0iMC41IiB5PSIwLjUiIHdpZHRoPSI0OCIgaGVpZ2h0PSI0OCIvPjxjaXJjbGUgY2xhc3M9ImNscy0yIiBjeD0iMTguODgiIGN5PSIyOC44OCIgcj0iMC42MyIvPjxyZWN0IGNsYXNzPSJjbHMtMiIgeD0iMTUuNzUiIHk9IjE4LjI1IiB3aWR0aD0iMi41IiBoZWlnaHQ9IjEuMjUiLz48cmVjdCBjbGFzcz0iY2xzLTIiIHg9IjE5LjUiIHk9IjE4LjI1IiB3aWR0aD0iMi41IiBoZWlnaHQ9IjEuMjUiLz48cmVjdCBjbGFzcz0iY2xzLTIiIHg9IjIzLjI1IiB5PSIxOC4yNSIgd2lkdGg9IjIuNSIgaGVpZ2h0PSIxLjI1Ii8+PHJlY3QgY2xhc3M9ImNscy0yIiB4PSIyNyIgeT0iMTguMjUiIHdpZHRoPSIyLjUiIGhlaWdodD0iMS4yNSIvPjxyZWN0IGNsYXNzPSJjbHMtMiIgeD0iMzAuNzUiIHk9IjE4LjI1IiB3aWR0aD0iMi41IiBoZWlnaHQ9IjEuMjUiLz48cGF0aCBjbGFzcz0iY2xzLTIiIGQ9Ik0zMiwzMkgxN2ExLjI1LDEuMjUsMCwwLDEtMS4yNS0xLjI1VjI3QTEuMjUsMS4yNSwwLDAsMSwxNywyNS43NUgzMkExLjI1LDEuMjUsMCwwLDEsMzMuMjUsMjd2My43NUExLjI1LDEuMjUsMCwwLDEsMzIsMzJaTTE3LDI3djMuNzVIMzJWMjdaIi8+PHJlY3QgY2xhc3M9ImNscy0zIiB4PSIxNC41IiB5PSIxNC41IiB3aWR0aD0iMjAiIGhlaWdodD0iMjAiLz48cmVjdCBjbGFzcz0iY2xzLTIiIHg9IjE1Ljc1IiB5PSIyMiIgd2lkdGg9IjE3LjUiIGhlaWdodD0iMS4yNSIvPjwvc3ZnPg==;fontFamily=IBM Plex Sans;fontSize=14;spacingTop=-7;labelPosition=center;verticalLabelPosition=bottom;align=center;verticalAlign=top;fontStyle=0" parent="HneQTFAt5YI_aULQyN3W-59" vertex="1">
          <mxGeometry x="-2620" y="640" width="48" height="48" as="geometry" />
        </mxCell>
        <mxCell id="HneQTFAt5YI_aULQyN3W-5" value="Client" style="shape=image;aspect=fixed;image=data:image/svg+xml,PHN2ZyB4bWxuczp4bGluaz0iaHR0cDovL3d3dy53My5vcmcvMTk5OS94bGluayIgeG1sbnM9Imh0dHA6Ly93d3cudzMub3JnLzIwMDAvc3ZnIiB2ZXJzaW9uPSIxLjEiIHZpZXdCb3g9IjAgMCA0OCA0OCIgaGVpZ2h0PSI0OHB4IiB3aWR0aD0iNDhweCI+JiN4YTsgICAgPHRpdGxlPlVzZXI8L3RpdGxlPiYjeGE7ICAgIDxnIGZpbGwtcnVsZT0iZXZlbm9kZCIgZmlsbD0ibm9uZSIgc3Ryb2tlLXdpZHRoPSIxIiBzdHJva2U9Im5vbmUiIGlkPSJWMi1JY29ucyI+JiN4YTsgICAgICAgIDxnIHRyYW5zZm9ybT0idHJhbnNsYXRlKC04ODcsIC0xOCkiIGlkPSJJQk0vQ2xvdWQvQWN0b3JzIj4mI3hhOyAgICAgICAgICAgIDxnIHRyYW5zZm9ybT0idHJhbnNsYXRlKDg4NywgMTgpIiBpZD0iVXNlciI+JiN4YTsgICAgICAgICAgICAgICAgPHJlY3Qgcng9IjI0IiBoZWlnaHQ9IjQ4IiB3aWR0aD0iNDgiIHk9IjAiIHg9IjAiIGZpbGw9IiMwMDAwMDAiIGlkPSJSZWN0YW5nbGUtQ29weS0xMCIvPiYjeGE7ICAgICAgICAgICAgICAgIDxnIHRyYW5zZm9ybT0idHJhbnNsYXRlKDEyLCAxMikiIGlkPSJ1c2VyIj4mI3hhOyAgICAgICAgICAgICAgICAgICAgPHBhdGggZmlsbC1ydWxlPSJub256ZXJvIiBmaWxsPSIjRkZGRkZGIiBpZD0iU2hhcGUiIGQ9Ik0xMiwzIEMxNC4wNzEwNjc4LDMgMTUuNzUsNC42Nzg5MzIxOSAxNS43NSw2Ljc1IEMxNS43NSw4LjgyMTA2NzgxIDE0LjA3MTA2NzgsMTAuNSAxMiwxMC41IEM5LjkyODkzMjE5LDEwLjUgOC4yNSw4LjgyMTA2NzgxIDguMjUsNi43NSBDOC4yNSw0LjY3ODkzMjE5IDkuOTI4OTMyMTksMyAxMiwzIE0xMiwxLjUgQzkuMTAwNTA1MDYsMS41IDYuNzUsMy44NTA1MDUwNiA2Ljc1LDYuNzUgQzYuNzUsOS42NDk0OTQ5NCA5LjEwMDUwNTA2LDEyIDEyLDEyIEMxNC44OTk0OTQ5LDEyIDE3LjI1LDkuNjQ5NDk0OTQgMTcuMjUsNi43NSBDMTcuMjUsNS4zNTc2MTM0MyAxNi42OTY4NzY2LDQuMDIyMjU1MzkgMTUuNzEyMzEwNiwzLjAzNzY4OTQgQzE0LjcyNzc0NDYsMi4wNTMxMjM0MSAxMy4zOTIzODY2LDEuNSAxMiwxLjUgTDEyLDEuNSBaIi8+JiN4YTsgICAgICAgICAgICAgICAgICAgIDxwYXRoIGZpbGwtcnVsZT0ibm9uemVybyIgZmlsbD0iI0ZGRkZGRiIgaWQ9IlBhdGgiIGQ9Ik0xOS41LDIyLjUgTDE4LDIyLjUgTDE4LDE4Ljc1IEMxOCwxNy43NTU0MzgyIDE3LjYwNDkxMTgsMTYuODAxNjExIDE2LjkwMTY1MDQsMTYuMDk4MzQ5NiBDMTYuMTk4Mzg5LDE1LjM5NTA4ODIgMTUuMjQ0NTYxOCwxNSAxNC4yNSwxNSBMOS43NSwxNSBDNy42Nzg5MzIxOSwxNSA2LDE2LjY3ODkzMjIgNiwxOC43NSBMNiwyMi41IEw0LjUsMjIuNSBMNC41LDE4Ljc1IEM0LjUsMTUuODUwNTA1MSA2Ljg1MDUwNTA2LDEzLjUgOS43NSwxMy41IEwxNC4yNSwxMy41IEMxNy4xNDk0OTQ5LDEzLjUgMTkuNSwxNS44NTA1MDUxIDE5LjUsMTguNzUgTDE5LjUsMjIuNSBaIi8+JiN4YTsgICAgICAgICAgICAgICAgICAgIDxyZWN0IGhlaWdodD0iMjQiIHdpZHRoPSIyNCIgeT0iMCIgeD0iMCIgaWQ9Il9UcmFuc3BhcmVudF9SZWN0YW5nbGVfIi8+JiN4YTsgICAgICAgICAgICAgICAgPC9nPiYjeGE7ICAgICAgICAgICAgPC9nPiYjeGE7ICAgICAgICA8L2c+JiN4YTsgICAgPC9nPiYjeGE7PC9zdmc+;fontFamily=IBM Plex Sans;spacingTop=-7;labelPosition=center;verticalLabelPosition=bottom;align=center;verticalAlign=top;fontSize=14;fontStyle=0" parent="HneQTFAt5YI_aULQyN3W-59" vertex="1">
          <mxGeometry x="-3519" y="450" width="48" height="48" as="geometry" />
        </mxCell>
        <mxCell id="P5f-9x0DIOcbd5ffzTkL-66" style="rounded=0;orthogonalLoop=1;jettySize=auto;html=1;exitX=1;exitY=0.5;exitDx=0;exitDy=0;fontSize=14;startArrow=oval;startFill=1;endArrow=oval;endFill=1;strokeWidth=2;fontStyle=0;fontFamily=IBM Plex Sans;" parent="HneQTFAt5YI_aULQyN3W-59" source="HneQTFAt5YI_aULQyN3W-5" edge="1">
          <mxGeometry relative="1" as="geometry">
            <mxPoint x="-3399" y="471.5" as="sourcePoint" />
            <mxPoint x="-3255" y="472" as="targetPoint" />
          </mxGeometry>
        </mxCell>
        <mxCell id="HneQTFAt5YI_aULQyN3W-25" value="VPC Multi-zone LB" style="shape=image;aspect=fixed;image=data:image/svg+xml,PHN2ZyB4bWxuczp4bGluaz0iaHR0cDovL3d3dy53My5vcmcvMTk5OS94bGluayIgeG1sbnM9Imh0dHA6Ly93d3cudzMub3JnLzIwMDAvc3ZnIiB2ZXJzaW9uPSIxLjEiIHZpZXdCb3g9IjAgMCA0OCA0OCIgaGVpZ2h0PSI0OHB4IiB3aWR0aD0iNDhweCI+JiN4YTsgICAgPHRpdGxlPmxvYWQtYmFsYW5jZXItLWxvY2FsPC90aXRsZT4mI3hhOyAgICA8ZyBmaWxsLXJ1bGU9ImV2ZW5vZGQiIGZpbGw9Im5vbmUiIHN0cm9rZS13aWR0aD0iMSIgc3Ryb2tlPSJub25lIiBpZD0iVjItSWNvbnMiPiYjeGE7ICAgICAgICA8ZyB0cmFuc2Zvcm09InRyYW5zbGF0ZSgtMTgyLCAtODYpIiBpZD0iSUJNL0Nsb3VkL05ldHdvcmsiPiYjeGE7ICAgICAgICAgICAgPGcgdHJhbnNmb3JtPSJ0cmFuc2xhdGUoMTgyLCA4NikiIGlkPSJsb2FkLWJhbGFuY2VyLS1sb2NhbCI+JiN4YTsgICAgICAgICAgICAgICAgPHJlY3QgaGVpZ2h0PSI0OCIgd2lkdGg9IjQ4IiB5PSIwIiB4PSIwIiBmaWxsPSIjMTE5MkU4IiBpZD0iUmVjdGFuZ2xlLUNvcHktMTYiLz4mI3hhOyAgICAgICAgICAgICAgICA8ZyB0cmFuc2Zvcm09InRyYW5zbGF0ZSgxMiwgMTIpIj4mI3hhOyAgICAgICAgICAgICAgICAgICAgPHBhdGggZmlsbC1ydWxlPSJub256ZXJvIiBmaWxsPSIjRkZGRkZGIiBpZD0iUGF0aCIgZD0iTTE4Ljc1LDEyIEwxMi43NSwxMiBMMTIuNzUsNy41IEwxMS4yNSw3LjUgTDExLjI1LDEyIEw1LjI1LDEyIEM0LjQyMTk2Njk1LDEyLjAwMDk1MDYgMy43NTA5NTA2LDEyLjY3MTk2NjkgMy43NSwxMy41IEwzLjc1LDE4IEw1LjI1LDE4IEw1LjI1LDEzLjUgTDExLjI1LDEzLjUgTDExLjI1LDE4IEwxMi43NSwxOCBMMTIuNzUsMTMuNSBMMTguNzUsMTMuNSBMMTguNzUsMTggTDIwLjI1LDE4IEwyMC4yNSwxMy41IEMyMC4yNDkwNDk0LDEyLjY3MTk2NjkgMTkuNTc4MDMzMSwxMi4wMDA5NTA2IDE4Ljc1LDEyIFoiLz4mI3hhOyAgICAgICAgICAgICAgICAgICAgPHJlY3QgaGVpZ2h0PSIzIiB3aWR0aD0iMyIgeT0iMTkuNSIgeD0iMyIgZmlsbC1ydWxlPSJub256ZXJvIiBmaWxsPSIjRkZGRkZGIiBpZD0iUmVjdGFuZ2xlIi8+JiN4YTsgICAgICAgICAgICAgICAgICAgIDxyZWN0IGhlaWdodD0iMyIgd2lkdGg9IjMiIHk9IjE5LjUiIHg9IjEwLjUiIGZpbGwtcnVsZT0ibm9uemVybyIgZmlsbD0iI0ZGRkZGRiIgaWQ9IlJlY3RhbmdsZSIvPiYjeGE7ICAgICAgICAgICAgICAgICAgICA8cmVjdCBoZWlnaHQ9IjMiIHdpZHRoPSIzIiB5PSIxOS41IiB4PSIxOCIgZmlsbC1ydWxlPSJub256ZXJvIiBmaWxsPSIjRkZGRkZGIiBpZD0iUmVjdGFuZ2xlIi8+JiN4YTsgICAgICAgICAgICAgICAgICAgIDxyZWN0IGhlaWdodD0iMS41IiB3aWR0aD0iNy41IiB5PSIzLjc1IiB4PSI4LjI1IiBmaWxsLXJ1bGU9Im5vbnplcm8iIGZpbGw9IiNGRkZGRkYiIGlkPSJSZWN0YW5nbGUiLz4mI3hhOyAgICAgICAgICAgICAgICAgICAgPHJlY3QgaGVpZ2h0PSIyNCIgd2lkdGg9IjI0IiB5PSIwIiB4PSIwIiBpZD0iX1RyYW5zcGFyZW50X1JlY3RhbmdsZV8iLz4mI3hhOyAgICAgICAgICAgICAgICA8L2c+JiN4YTsgICAgICAgICAgICA8L2c+JiN4YTsgICAgICAgIDwvZz4mI3hhOyAgICA8L2c+JiN4YTs8L3N2Zz4=;fontSize=14;labelPosition=center;verticalLabelPosition=bottom;align=center;verticalAlign=top;spacingTop=-7;fontFamily=IBM Plex Sans;fontStyle=0" parent="HneQTFAt5YI_aULQyN3W-59" vertex="1">
          <mxGeometry x="-3255" y="443.5" width="48" height="48" as="geometry" />
        </mxCell>
        <mxCell id="lomF_qURMvtSIjknfktM-75" value="Subnet" parent="0" />
      </root>
    </mxGraphModel>
  </diagram>
</mxfile>
